<svg xmlns="http://www.w3.org/2000/svg" xmlns:xlink="http://www.w3.org/1999/xlink" width="200" zoomAndPan="magnify" viewBox="0 0 150 56.249996" height="75" preserveAspectRatio="xMidYMid meet" version="1.0"><defs><g/><clipPath id="34eb0ba81f"><path d="M 2.46875 5.195312 L 56.496094 5.195312 L 56.496094 49.605469 L 2.46875 49.605469 Z M 2.46875 5.195312 " clip-rule="nonzero"/></clipPath><clipPath id="e135b9482f"><path d="M 7 5.195312 L 48 5.195312 L 48 9 L 7 9 Z M 7 5.195312 " clip-rule="nonzero"/></clipPath><clipPath id="84134b5003"><path d="M 7 38 L 19 38 L 19 49.605469 L 7 49.605469 Z M 7 38 " clip-rule="nonzero"/></clipPath><clipPath id="9b01046e9f"><path d="M 41 38 L 53 38 L 53 49.605469 L 41 49.605469 Z M 41 38 " clip-rule="nonzero"/></clipPath></defs><g clip-path="url(#34eb0ba81f)"><path fill="#f2c8bf" d="M 56.378906 44.03125 C 56.15625 43.207031 55.96875 42.371094 55.722656 41.554688 C 54.71875 38.222656 53.433594 35.019531 51.347656 32.1875 C 49.9375 30.269531 48.257812 28.667969 46.050781 27.667969 C 45.339844 27.34375 44.566406 27.207031 43.847656 26.90625 C 43.621094 26.964844 43.398438 26.9375 43.175781 26.90625 C 43.398438 26.9375 43.621094 26.964844 43.847656 26.90625 C 43.84375 21.140625 43.839844 15.375 43.835938 9.609375 C 43.835938 9.171875 43.824219 8.738281 43.816406 8.300781 C 43.414062 8.304688 43.011719 8.308594 42.609375 8.316406 C 42.609375 14.269531 42.609375 20.226562 42.613281 26.179688 C 42.613281 26.40625 42.640625 26.632812 42.652344 26.859375 C 42.449219 27.5 42.242188 28.136719 42.039062 28.777344 C 41.980469 28.957031 41.941406 29.144531 41.761719 29.25 C 41.871094 29.730469 41.617188 30.121094 41.449219 30.53125 C 40.9375 32.222656 40.425781 33.910156 39.90625 35.597656 C 39.425781 37.160156 38.929688 38.71875 38.449219 40.28125 C 38.347656 40.613281 38.1875 40.777344 37.800781 40.777344 C 34.425781 40.765625 31.054688 40.761719 27.679688 40.78125 C 27.199219 40.78125 27.164062 40.570312 27.164062 40.191406 C 27.175781 35.773438 27.160156 31.351562 27.183594 26.929688 C 27.1875 26.386719 27.050781 26.222656 26.492188 26.230469 C 24.152344 26.261719 21.8125 26.242188 19.472656 26.242188 C 19.480469 23.101562 19.488281 19.960938 19.488281 16.824219 C 19.492188 14.101562 19.492188 11.378906 19.492188 8.660156 C 21.0625 8.632812 22.636719 8.605469 24.207031 8.585938 C 27.101562 8.542969 30 8.507812 32.894531 8.46875 C 35.402344 8.433594 37.914062 8.398438 40.425781 8.351562 C 41.152344 8.335938 41.878906 8.269531 42.609375 8.316406 C 43.011719 8.308594 43.414062 8.304688 43.816406 8.300781 C 44.964844 8.28125 46.113281 8.25 47.265625 8.246094 C 47.589844 8.246094 47.703125 8.148438 47.691406 7.820312 C 47.671875 7.191406 47.640625 6.558594 47.699219 5.9375 C 47.753906 5.339844 47.546875 5.21875 46.972656 5.21875 C 34.21875 5.238281 21.464844 5.234375 8.710938 5.234375 C 8.597656 5.234375 8.480469 5.242188 8.367188 5.234375 C 8.09375 5.210938 7.996094 5.347656 7.976562 5.601562 C 7.898438 6.53125 7.824219 7.460938 7.714844 8.386719 C 7.664062 8.8125 7.859375 8.84375 8.203125 8.835938 C 11.574219 8.769531 14.949219 8.714844 18.320312 8.660156 C 18.324219 14.519531 18.324219 20.375 18.328125 26.234375 C 17.664062 26.238281 16.996094 26.238281 16.328125 26.238281 C 16.332031 23.71875 16.328125 21.195312 16.34375 18.671875 C 16.347656 18.308594 16.242188 18.160156 15.867188 18.167969 C 15.296875 18.175781 14.722656 18.152344 14.152344 18.140625 C 14.15625 16.730469 14.167969 15.320312 14.152344 13.914062 C 14.148438 13.542969 14.261719 13.414062 14.640625 13.417969 C 15.273438 13.429688 15.90625 13.363281 16.445312 12.980469 C 16.902344 12.65625 17.015625 12.183594 16.886719 11.664062 C 16.738281 11.070312 16.371094 10.804688 15.769531 10.796875 C 14.789062 10.78125 13.488281 12.042969 13.484375 13.054688 C 13.472656 14.75 13.484375 16.445312 13.488281 18.140625 C 13.253906 18.136719 13.019531 18.136719 12.785156 18.132812 C 12.785156 16.609375 12.703125 15.078125 12.8125 13.5625 C 12.902344 12.382812 12.261719 11.707031 11.472656 11.082031 C 11.027344 10.726562 10.488281 10.648438 9.964844 10.949219 C 9.464844 11.238281 9.378906 11.722656 9.445312 12.246094 C 9.515625 12.816406 9.898438 13.097656 10.421875 13.230469 C 10.828125 13.335938 11.234375 13.460938 11.660156 13.421875 C 12.085938 13.378906 12.226562 13.527344 12.21875 13.960938 C 12.191406 15.351562 12.210938 16.742188 12.210938 18.132812 C 11.859375 18.136719 11.507812 18.136719 11.160156 18.140625 C 11.160156 17.492188 11.121094 16.84375 11.175781 16.199219 C 11.285156 14.882812 10.433594 14.179688 9.484375 13.582031 C 8.851562 13.179688 8.066406 13.523438 7.785156 14.214844 C 7.511719 14.886719 7.828125 15.558594 8.539062 15.828125 C 9.027344 16.011719 9.53125 16.105469 10.054688 16.0625 C 10.375 16.03125 10.5 16.160156 10.488281 16.484375 C 10.46875 17.035156 10.480469 17.585938 10.480469 18.140625 C 9.832031 18.15625 9.179688 18.203125 8.53125 18.179688 C 8.101562 18.164062 7.976562 18.296875 7.980469 18.726562 C 7.988281 19.585938 7.992188 20.445312 7.992188 21.308594 C 7.96875 21.335938 7.96875 21.367188 7.992188 21.390625 C 7.996094 22.34375 7.996094 23.296875 7.996094 24.25 C 7.972656 24.265625 7.957031 24.289062 7.960938 24.316406 C 7.972656 24.332031 7.984375 24.347656 7.996094 24.363281 C 7.996094 24.976562 7.996094 25.585938 7.996094 26.199219 C 7.964844 26.347656 7.949219 26.5 7.90625 26.644531 C 6.734375 30.519531 5.5625 34.390625 4.390625 38.265625 C 3.820312 40.15625 3.25 42.046875 2.683594 43.941406 C 2.472656 44.660156 2.480469 44.664062 3.21875 44.664062 C 4.710938 44.664062 6.207031 44.664062 7.703125 44.664062 C 7.957031 45.863281 8.441406 46.949219 9.378906 47.777344 C 10.957031 49.167969 12.765625 49.589844 14.765625 48.90625 C 16.789062 48.210938 17.9375 46.742188 18.328125 44.667969 C 26.148438 44.664062 33.96875 44.664062 41.789062 44.664062 C 41.851562 44.902344 41.90625 45.144531 41.976562 45.378906 C 42.667969 47.710938 44.902344 49.324219 47.28125 49.210938 C 49.929688 49.085938 51.921875 47.320312 52.414062 44.664062 C 53.566406 44.664062 54.714844 44.640625 55.867188 44.671875 C 56.398438 44.6875 56.5 44.480469 56.378906 44.03125 Z M 56.378906 44.03125 " fill-opacity="1" fill-rule="evenodd"/></g><path fill="#f2c8bf" d="M 38.542969 26.667969 C 38.238281 26.433594 38.296875 26.289062 38.480469 26.042969 C 39.058594 25.257812 39.574219 24.4375 39.855469 23.492188 C 39.992188 23.027344 40.230469 22.480469 39.761719 22.113281 C 39.308594 21.757812 38.789062 22.039062 38.375 22.300781 C 36.085938 23.769531 34.433594 25.773438 33.445312 28.296875 C 33.273438 28.722656 33.078125 29.257812 33.519531 29.632812 C 33.984375 30.027344 34.46875 29.710938 34.902344 29.484375 C 35.796875 29.015625 36.515625 28.324219 37.199219 27.597656 C 37.414062 27.367188 37.550781 27.363281 37.796875 27.570312 C 39.003906 28.570312 40.230469 29.546875 41.449219 30.53125 C 41.617188 30.121094 41.871094 29.730469 41.761719 29.25 C 40.691406 28.386719 39.632812 27.507812 38.542969 26.667969 Z M 38.542969 26.667969 " fill-opacity="1" fill-rule="evenodd"/><g clip-path="url(#e135b9482f)"><path fill="#f26862" d="M 18.320312 8.660156 C 14.949219 8.714844 11.574219 8.769531 8.203125 8.835938 C 7.859375 8.84375 7.664062 8.8125 7.714844 8.386719 C 7.824219 7.460938 7.898438 6.53125 7.976562 5.601562 C 7.996094 5.347656 8.09375 5.210938 8.367188 5.234375 C 8.480469 5.242188 8.597656 5.234375 8.710938 5.234375 C 21.464844 5.234375 34.21875 5.238281 46.972656 5.21875 C 47.546875 5.21875 47.753906 5.339844 47.699219 5.9375 C 47.640625 6.558594 47.671875 7.191406 47.691406 7.820312 C 47.703125 8.148438 47.589844 8.246094 47.265625 8.246094 C 46.113281 8.25 44.964844 8.28125 43.816406 8.300781 C 43.414062 8.304688 43.011719 8.308594 42.609375 8.316406 C 41.878906 8.269531 41.152344 8.335938 40.425781 8.351562 C 37.914062 8.398438 35.402344 8.433594 32.894531 8.46875 C 30 8.507812 27.101562 8.542969 24.207031 8.585938 C 22.636719 8.605469 21.0625 8.632812 19.492188 8.660156 C 19.101562 8.660156 18.710938 8.660156 18.320312 8.660156 Z M 18.320312 8.660156 " fill-opacity="1" fill-rule="nonzero"/></g><g clip-path="url(#84134b5003)"><path fill="#2b3333" d="M 7.703125 44.664062 C 7.59375 43.152344 7.882812 41.757812 8.871094 40.546875 C 10.195312 38.921875 12.429688 38.199219 14.449219 38.769531 C 16.566406 39.363281 18.066406 41.113281 18.332031 43.25 C 18.390625 43.726562 18.367188 44.195312 18.328125 44.667969 C 17.9375 46.742188 16.789062 48.210938 14.765625 48.90625 C 12.765625 49.589844 10.957031 49.167969 9.378906 47.777344 C 8.441406 46.949219 7.957031 45.867188 7.703125 44.664062 Z M 7.703125 44.664062 " fill-opacity="1" fill-rule="nonzero"/></g><g clip-path="url(#9b01046e9f)"><path fill="#2b3333" d="M 41.789062 44.664062 C 41.671875 43.105469 41.96875 41.660156 43.035156 40.460938 C 44.535156 38.78125 46.421875 38.195312 48.585938 38.808594 C 50.753906 39.421875 52.007812 40.921875 52.398438 43.132812 C 52.492188 43.648438 52.464844 44.15625 52.414062 44.664062 C 51.921875 47.320312 49.929688 49.085938 47.28125 49.210938 C 44.902344 49.324219 42.667969 47.710938 41.976562 45.378906 C 41.90625 45.144531 41.851562 44.902344 41.789062 44.664062 Z M 41.789062 44.664062 " fill-opacity="1" fill-rule="nonzero"/></g><path fill="#f26862" d="M 16.328125 26.238281 C 13.703125 26.242188 11.078125 26.242188 8.449219 26.242188 C 8.300781 26.242188 8.148438 26.214844 7.996094 26.199219 C 7.992188 23.707031 8 21.214844 7.980469 18.726562 C 7.976562 18.296875 8.101562 18.164062 8.53125 18.179688 C 9.179688 18.203125 9.832031 18.15625 10.480469 18.140625 C 10.707031 18.234375 10.933594 18.128906 11.160156 18.140625 C 11.507812 18.136719 11.859375 18.136719 12.210938 18.132812 C 12.402344 18.132812 12.59375 18.132812 12.785156 18.132812 C 13.019531 18.136719 13.253906 18.136719 13.488281 18.140625 C 13.707031 18.140625 13.929688 18.140625 14.152344 18.140625 C 14.722656 18.152344 15.296875 18.175781 15.867188 18.167969 C 16.242188 18.160156 16.347656 18.308594 16.34375 18.671875 C 16.328125 21.195312 16.332031 23.71875 16.328125 26.238281 Z M 16.328125 26.238281 " fill-opacity="1" fill-rule="nonzero"/><path fill="#2b3333" d="M 42.609375 8.316406 C 43.011719 8.308594 43.414062 8.304688 43.816406 8.300781 C 43.824219 8.738281 43.835938 9.171875 43.835938 9.609375 C 43.839844 15.375 43.84375 21.140625 43.847656 26.90625 C 43.445312 27.011719 43.050781 26.84375 42.652344 26.859375 C 42.640625 26.632812 42.613281 26.40625 42.613281 26.179688 C 42.609375 20.226562 42.609375 14.269531 42.609375 8.316406 Z M 42.609375 8.316406 " fill-opacity="1" fill-rule="nonzero"/><path fill="#2b3333" d="M 18.320312 8.660156 C 18.710938 8.660156 19.101562 8.660156 19.492188 8.660156 C 19.492188 11.378906 19.492188 14.101562 19.488281 16.824219 C 19.488281 19.960938 19.480469 23.101562 19.472656 26.242188 C 19.089844 26.242188 18.710938 26.238281 18.328125 26.234375 C 18.324219 20.375 18.324219 14.519531 18.320312 8.660156 Z M 18.320312 8.660156 " fill-opacity="1" fill-rule="nonzero"/><path fill="#cad3d3" d="M 14.152344 18.140625 C 13.929688 18.140625 13.707031 18.140625 13.488281 18.140625 C 13.484375 16.445312 13.472656 14.75 13.484375 13.054688 C 13.488281 12.042969 14.789062 10.78125 15.769531 10.796875 C 16.371094 10.804688 16.738281 11.070312 16.886719 11.664062 C 17.015625 12.183594 16.902344 12.65625 16.445312 12.980469 C 15.90625 13.363281 15.273438 13.429688 14.640625 13.417969 C 14.261719 13.414062 14.148438 13.542969 14.152344 13.914062 C 14.167969 15.320312 14.15625 16.730469 14.152344 18.140625 Z M 14.152344 18.140625 " fill-opacity="1" fill-rule="nonzero"/><path fill="#cad3d3" d="M 12.785156 18.132812 C 12.59375 18.132812 12.402344 18.132812 12.210938 18.132812 C 12.207031 16.742188 12.191406 15.351562 12.214844 13.960938 C 12.222656 13.527344 12.085938 13.378906 11.660156 13.421875 C 11.234375 13.460938 10.828125 13.335938 10.421875 13.230469 C 9.898438 13.097656 9.515625 12.816406 9.445312 12.246094 C 9.378906 11.726562 9.464844 11.238281 9.964844 10.949219 C 10.488281 10.648438 11.027344 10.726562 11.472656 11.082031 C 12.261719 11.710938 12.898438 12.382812 12.8125 13.5625 C 12.703125 15.078125 12.785156 16.609375 12.785156 18.132812 Z M 12.785156 18.132812 " fill-opacity="1" fill-rule="nonzero"/><path fill="#cad3d3" d="M 11.160156 18.140625 C 10.933594 18.128906 10.707031 18.234375 10.480469 18.140625 C 10.480469 17.585938 10.46875 17.035156 10.488281 16.484375 C 10.5 16.160156 10.375 16.03125 10.054688 16.0625 C 9.53125 16.105469 9.027344 16.011719 8.539062 15.828125 C 7.828125 15.558594 7.511719 14.886719 7.785156 14.21875 C 8.066406 13.523438 8.851562 13.179688 9.484375 13.582031 C 10.433594 14.179688 11.285156 14.882812 11.175781 16.199219 C 11.121094 16.84375 11.160156 17.492188 11.160156 18.140625 Z M 11.160156 18.140625 " fill-opacity="1" fill-rule="nonzero"/><path fill="#2b3333" d="M 41.449219 30.53125 C 40.230469 29.546875 39.003906 28.570312 37.796875 27.570312 C 37.550781 27.367188 37.414062 27.367188 37.199219 27.597656 C 36.515625 28.324219 35.796875 29.015625 34.902344 29.484375 C 34.46875 29.710938 33.984375 30.027344 33.519531 29.632812 C 33.078125 29.257812 33.273438 28.722656 33.445312 28.296875 C 34.433594 25.773438 36.085938 23.769531 38.375 22.300781 C 38.789062 22.039062 39.308594 21.757812 39.761719 22.113281 C 40.230469 22.480469 39.992188 23.027344 39.855469 23.492188 C 39.574219 24.4375 39.058594 25.257812 38.480469 26.042969 C 38.296875 26.289062 38.238281 26.433594 38.542969 26.667969 C 39.632812 27.507812 40.691406 28.386719 41.761719 29.25 C 41.871094 29.730469 41.617188 30.121094 41.449219 30.53125 Z M 41.449219 30.53125 " fill-opacity="1" fill-rule="nonzero"/><path fill="#f26862" d="M 27.148438 40.5625 C 27.066406 40.636719 26.769531 40.652344 26.4375 40.664062 C 26.105469 40.675781 25.730469 40.683594 25.5 40.726562 C 24.90625 40.726562 24.308594 40.730469 23.714844 40.738281 C 23.398438 40.761719 23.429688 40.695312 23.414062 40.640625 C 23.273438 40.703125 22.949219 40.75 22.671875 40.6875 C 22.277344 40.695312 21.824219 40.71875 21.628906 40.671875 C 21.429688 40.714844 21.070312 40.726562 20.683594 40.722656 C 20.585938 40.71875 20.484375 40.71875 20.410156 40.703125 C 20.375 40.679688 20.347656 40.652344 20.320312 40.617188 C 20.289062 40.585938 20.265625 40.542969 20.234375 40.503906 C 20.128906 40.347656 20.035156 40.1875 19.945312 40.054688 C 19.773438 39.796875 19.59375 39.519531 19.394531 39.238281 C 19.296875 39.09375 19.191406 38.953125 19.078125 38.816406 C 18.960938 38.679688 18.832031 38.550781 18.679688 38.449219 C 18.074219 38.027344 17.394531 37.652344 16.6875 37.359375 C 15.984375 37.0625 15.25 36.859375 14.5625 36.75 C 13.871094 36.640625 13.226562 36.628906 12.6875 36.675781 C 12.460938 36.675781 12.28125 36.6875 12.101562 36.714844 C 12.015625 36.726562 11.921875 36.734375 11.828125 36.742188 C 11.730469 36.753906 11.628906 36.761719 11.507812 36.765625 C 11.292969 36.800781 11.191406 36.855469 11.085938 36.902344 C 10.980469 36.949219 10.875 36.992188 10.664062 37.050781 C 10.46875 37.089844 10.191406 37.191406 9.945312 37.28125 C 9.824219 37.328125 9.707031 37.371094 9.613281 37.402344 C 9.515625 37.433594 9.441406 37.457031 9.398438 37.453125 C 9.105469 37.605469 8.660156 37.867188 8.253906 38.179688 C 8.050781 38.335938 7.859375 38.507812 7.691406 38.679688 C 7.601562 38.757812 7.53125 38.847656 7.457031 38.925781 C 7.417969 38.964844 7.382812 39.003906 7.351562 39.042969 C 7.316406 39.078125 7.289062 39.117188 7.257812 39.152344 C 7.253906 39.273438 7.171875 39.371094 7.101562 39.5 C 7.0625 39.5625 7.019531 39.628906 6.984375 39.699219 C 6.945312 39.769531 6.921875 39.851562 6.90625 39.933594 C 6.816406 40.125 6.761719 40.332031 6.695312 40.535156 L 6.613281 40.914062 L 6.566406 41.113281 L 6.5625 41.132812 C 6.5625 41.136719 6.5625 41.144531 6.554688 41.140625 L 6.519531 41.140625 L 6.246094 41.136719 C 6.035156 41.136719 5.816406 41.136719 5.585938 41.136719 C 5.371094 41.136719 5.152344 41.128906 4.933594 41.125 C 4.5 41.109375 4.078125 41.085938 3.691406 41.035156 C 3.578125 41.003906 3.605469 40.953125 3.742188 40.914062 C 3.875 40.875 4.117188 40.855469 4.429688 40.894531 C 4.742188 40.859375 5.414062 40.96875 5.769531 40.945312 C 5.890625 40.941406 6.011719 40.9375 6.128906 40.933594 C 6.1875 40.933594 6.242188 40.929688 6.296875 40.929688 L 6.375 40.925781 C 6.394531 40.929688 6.390625 40.910156 6.394531 40.898438 L 6.402344 40.859375 C 6.421875 40.75 6.441406 40.644531 6.460938 40.539062 C 6.484375 40.429688 6.523438 40.324219 6.554688 40.21875 C 6.570312 40.164062 6.585938 40.109375 6.601562 40.058594 C 6.617188 40.007812 6.640625 39.957031 6.660156 39.90625 C 6.703125 39.804688 6.738281 39.703125 6.785156 39.605469 C 6.832031 39.507812 6.882812 39.410156 6.929688 39.3125 C 6.976562 39.21875 7.035156 39.128906 7.085938 39.03125 C 7.347656 38.667969 7.671875 38.320312 8.050781 38.019531 C 8.429688 37.714844 8.863281 37.46875 9.316406 37.261719 C 9.730469 37.074219 10.160156 36.914062 10.617188 36.78125 C 10.84375 36.710938 11.074219 36.652344 11.3125 36.59375 C 11.4375 36.566406 11.558594 36.542969 11.683594 36.515625 C 11.808594 36.488281 11.9375 36.476562 12.066406 36.457031 C 12.121094 36.457031 12.179688 36.453125 12.242188 36.445312 C 12.304688 36.441406 12.371094 36.441406 12.441406 36.4375 C 12.578125 36.429688 12.722656 36.414062 12.863281 36.417969 C 13.003906 36.417969 13.144531 36.417969 13.269531 36.421875 C 13.390625 36.433594 13.5 36.445312 13.582031 36.464844 C 13.636719 36.445312 13.703125 36.433594 13.773438 36.429688 C 13.839844 36.429688 13.914062 36.4375 13.992188 36.445312 C 14.070312 36.457031 14.152344 36.46875 14.234375 36.480469 C 14.316406 36.496094 14.402344 36.511719 14.488281 36.523438 C 14.585938 36.539062 14.691406 36.542969 14.800781 36.5625 C 14.910156 36.578125 15.03125 36.597656 15.160156 36.621094 C 15.421875 36.671875 15.730469 36.753906 16.101562 36.917969 C 16.734375 37.113281 17.332031 37.359375 17.867188 37.652344 C 17.933594 37.6875 18.003906 37.722656 18.066406 37.757812 C 18.132812 37.796875 18.195312 37.835938 18.257812 37.875 C 18.386719 37.953125 18.511719 38.03125 18.625 38.117188 C 18.683594 38.160156 18.742188 38.199219 18.800781 38.242188 L 18.886719 38.304688 L 18.976562 38.382812 C 19.035156 38.4375 19.078125 38.496094 19.128906 38.546875 C 19.171875 38.605469 19.214844 38.660156 19.253906 38.71875 C 19.582031 39.027344 19.8125 39.378906 20.054688 39.777344 C 20.175781 39.976562 20.304688 40.199219 20.445312 40.394531 C 20.460938 40.417969 20.480469 40.445312 20.496094 40.460938 C 20.507812 40.472656 20.503906 40.472656 20.503906 40.472656 C 20.507812 40.476562 20.507812 40.476562 20.507812 40.476562 C 20.511719 40.476562 20.503906 40.476562 20.515625 40.476562 L 20.566406 40.476562 C 20.710938 40.480469 20.867188 40.476562 21.035156 40.472656 C 22.015625 40.496094 23.09375 40.457031 24.457031 40.523438 C 24.890625 40.5 25.414062 40.449219 25.90625 40.433594 C 26.394531 40.417969 26.855469 40.441406 27.148438 40.5625 Z M 27.148438 40.5625 " fill-opacity="1" fill-rule="evenodd"/><path fill="#f26862" d="M 55.386719 40.769531 C 55.339844 40.855469 55.113281 40.910156 54.851562 40.941406 C 54.59375 40.976562 54.296875 40.980469 54.109375 41.011719 L 53.929688 40.996094 L 53.789062 40.984375 C 53.785156 40.984375 53.78125 40.984375 53.777344 40.980469 L 53.777344 40.96875 L 53.773438 40.945312 L 53.707031 40.589844 L 53.613281 40.253906 C 53.578125 40.140625 53.53125 40.03125 53.488281 39.921875 C 53.441406 39.808594 53.417969 39.757812 53.429688 39.722656 C 53.4375 39.691406 53.464844 39.683594 53.488281 39.664062 C 53.4375 39.625 53.371094 39.554688 53.316406 39.464844 C 53.253906 39.378906 53.195312 39.273438 53.167969 39.160156 C 53.082031 39.027344 52.976562 38.894531 52.890625 38.773438 C 52.796875 38.65625 52.722656 38.550781 52.6875 38.476562 C 52.550781 38.386719 52.351562 38.179688 52.117188 37.972656 C 52.003906 37.867188 51.875 37.769531 51.757812 37.667969 C 51.632812 37.578125 51.507812 37.492188 51.398438 37.425781 C 50.964844 37.183594 50.457031 36.941406 49.902344 36.75 C 49.34375 36.5625 48.742188 36.417969 48.140625 36.339844 C 47.539062 36.261719 46.9375 36.246094 46.386719 36.296875 C 45.832031 36.347656 45.335938 36.460938 44.929688 36.601562 C 44.574219 36.667969 44.394531 36.789062 44.023438 36.855469 C 43.703125 36.988281 43.730469 37.074219 43.425781 37.226562 C 43.28125 37.292969 43.089844 37.421875 42.921875 37.542969 C 42.753906 37.664062 42.613281 37.78125 42.539062 37.789062 C 42.359375 37.980469 42.09375 38.28125 41.859375 38.617188 C 41.625 38.949219 41.414062 39.3125 41.277344 39.558594 C 41.328125 39.746094 41.125 39.957031 41.101562 40.238281 L 41.011719 40.488281 L 40.960938 40.617188 L 40.933594 40.683594 L 40.894531 40.78125 C 40.882812 40.8125 40.867188 40.84375 40.851562 40.878906 L 40.828125 40.925781 C 40.824219 40.933594 40.824219 40.945312 40.816406 40.949219 L 40.789062 40.953125 C 40.71875 40.960938 40.644531 40.972656 40.574219 40.980469 L 40.480469 40.984375 C 40.453125 40.984375 40.429688 40.984375 40.40625 40.984375 C 40.359375 40.984375 40.3125 40.984375 40.265625 40.984375 C 39.617188 40.96875 38.855469 40.964844 38.277344 40.871094 C 38.191406 40.839844 38.207031 40.785156 38.3125 40.746094 C 38.414062 40.707031 38.609375 40.6875 38.855469 40.726562 C 39.105469 40.695312 39.632812 40.800781 39.917969 40.785156 C 40.113281 40.78125 40.300781 40.78125 40.480469 40.765625 C 40.527344 40.761719 40.5625 40.761719 40.605469 40.753906 L 40.664062 40.742188 C 40.671875 40.726562 40.679688 40.707031 40.6875 40.691406 C 40.703125 40.652344 40.714844 40.617188 40.730469 40.578125 C 40.746094 40.539062 40.761719 40.496094 40.777344 40.457031 C 40.894531 40.128906 40.992188 39.808594 41.082031 39.480469 C 41.148438 39.3125 41.242188 39.152344 41.328125 38.988281 C 41.375 38.910156 41.421875 38.828125 41.472656 38.75 C 41.523438 38.667969 41.574219 38.589844 41.628906 38.511719 C 41.847656 38.195312 42.105469 37.890625 42.40625 37.628906 C 42.949219 37.144531 43.613281 36.757812 44.390625 36.484375 C 44.476562 36.464844 44.574219 36.4375 44.679688 36.40625 C 44.785156 36.378906 44.894531 36.347656 45.003906 36.316406 C 45.113281 36.289062 45.222656 36.265625 45.316406 36.25 C 45.414062 36.234375 45.503906 36.226562 45.570312 36.230469 C 45.648438 36.164062 45.761719 36.144531 45.882812 36.125 C 46.007812 36.113281 46.144531 36.109375 46.28125 36.09375 C 46.359375 36.085938 46.441406 36.074219 46.53125 36.058594 C 46.621094 36.050781 46.714844 36.039062 46.820312 36.03125 C 47.03125 36.019531 47.289062 36.019531 47.605469 36.078125 C 48.660156 36.117188 49.65625 36.328125 50.414062 36.730469 C 50.582031 36.773438 50.75 36.820312 50.910156 36.894531 C 50.992188 36.929688 51.074219 36.96875 51.15625 37.007812 C 51.234375 37.050781 51.316406 37.101562 51.398438 37.148438 C 51.730469 37.351562 52.089844 37.609375 52.5 37.984375 C 52.78125 38.28125 53.066406 38.605469 53.316406 39 C 53.5625 39.398438 53.777344 39.871094 53.878906 40.425781 C 53.910156 40.507812 53.933594 40.601562 53.957031 40.695312 C 53.960938 40.710938 53.960938 40.710938 53.964844 40.714844 L 53.96875 40.722656 C 53.972656 40.730469 53.972656 40.734375 53.976562 40.738281 C 53.984375 40.746094 53.984375 40.757812 54.003906 40.75 C 54.015625 40.75 54.027344 40.746094 54.035156 40.742188 C 54.039062 40.742188 54.039062 40.738281 54.046875 40.738281 L 54.152344 40.738281 C 54.25 40.734375 54.34375 40.730469 54.4375 40.726562 C 54.808594 40.714844 55.148438 40.695312 55.386719 40.769531 Z M 55.386719 40.769531 " fill-opacity="1" fill-rule="evenodd"/><path fill="#f26862" d="M 50.957031 43.835938 C 50.886719 43.902344 50.921875 43.570312 50.890625 43.429688 C 50.871094 43.398438 50.855469 43.328125 50.839844 43.253906 C 50.832031 43.214844 50.824219 43.175781 50.816406 43.136719 C 50.804688 43.101562 50.792969 43.066406 50.78125 43.039062 C 50.769531 42.992188 50.753906 42.945312 50.742188 42.894531 C 50.734375 42.867188 50.730469 42.84375 50.722656 42.820312 C 50.714844 42.796875 50.707031 42.769531 50.695312 42.75 C 50.664062 42.65625 50.636719 42.574219 50.636719 42.523438 C 50.570312 42.421875 50.507812 42.308594 50.445312 42.191406 C 50.410156 42.132812 50.371094 42.074219 50.335938 42.015625 C 50.316406 41.984375 50.296875 41.953125 50.277344 41.925781 C 50.253906 41.894531 50.230469 41.867188 50.207031 41.839844 C 50.164062 41.789062 50.121094 41.746094 50.078125 41.699219 C 50.035156 41.652344 49.980469 41.609375 49.925781 41.558594 C 49.820312 41.449219 49.710938 41.355469 49.582031 41.25 C 49.3125 41.058594 48.941406 40.851562 48.527344 40.71875 C 48.113281 40.578125 47.660156 40.519531 47.265625 40.507812 C 47.171875 40.515625 47.105469 40.523438 47.039062 40.539062 C 46.972656 40.558594 46.910156 40.578125 46.820312 40.59375 C 46.082031 40.703125 45.535156 41.003906 45.097656 41.398438 L 45.011719 41.472656 L 44.9375 41.554688 C 44.886719 41.613281 44.832031 41.664062 44.78125 41.722656 C 44.691406 41.847656 44.59375 41.964844 44.515625 42.105469 C 44.425781 42.242188 44.359375 42.394531 44.289062 42.550781 C 44.257812 42.632812 44.230469 42.71875 44.199219 42.804688 C 44.167969 42.886719 44.152344 42.980469 44.128906 43.074219 C 44.101562 43.152344 44.085938 43.222656 44.078125 43.289062 C 44.070312 43.351562 44.058594 43.414062 44.054688 43.46875 C 44.042969 43.578125 44.039062 43.671875 44 43.777344 C 44.003906 44.363281 44.15625 44.941406 44.371094 45.425781 C 44.4375 45.515625 44.507812 45.59375 44.574219 45.675781 C 44.640625 45.761719 44.722656 45.835938 44.796875 45.925781 C 44.996094 46.132812 45.171875 46.320312 45.390625 46.492188 C 45.605469 46.667969 45.863281 46.820312 46.191406 46.941406 C 46.171875 46.933594 46.214844 46.980469 46.246094 46.980469 C 46.394531 46.996094 46.851562 47.121094 47.136719 47.136719 C 47.1875 47.136719 47.242188 47.136719 47.300781 47.140625 C 47.332031 47.140625 47.363281 47.140625 47.394531 47.140625 C 47.425781 47.140625 47.460938 47.136719 47.492188 47.132812 C 47.5625 47.128906 47.632812 47.125 47.707031 47.117188 C 47.78125 47.109375 47.855469 47.089844 47.933594 47.078125 C 47.96875 47.070312 48.011719 47.0625 48.050781 47.058594 C 48.089844 47.046875 48.128906 47.035156 48.167969 47.023438 C 48.246094 47 48.324219 46.980469 48.402344 46.953125 C 48.480469 46.921875 48.558594 46.890625 48.636719 46.859375 C 48.714844 46.824219 48.785156 46.78125 48.859375 46.746094 C 49.171875 46.609375 49.496094 46.394531 49.78125 46.085938 C 50.074219 45.824219 50.320312 45.460938 50.492188 45.070312 C 50.660156 44.675781 50.753906 44.253906 50.800781 43.851562 C 50.867188 43.796875 50.832031 44.023438 50.867188 44.054688 C 50.902344 44.121094 50.898438 43.667969 50.914062 43.921875 C 50.988281 43.859375 50.9375 44.285156 50.898438 44.328125 C 50.878906 44.5625 50.816406 44.703125 50.765625 44.855469 C 50.675781 45.171875 50.519531 45.503906 50.304688 45.808594 C 50.085938 46.109375 49.8125 46.371094 49.523438 46.578125 C 49.441406 46.636719 49.378906 46.691406 49.3125 46.730469 C 49.25 46.773438 49.195312 46.808594 49.140625 46.847656 C 49.113281 46.863281 49.085938 46.882812 49.058594 46.898438 C 49.03125 46.910156 49 46.925781 48.972656 46.941406 C 48.910156 46.96875 48.847656 46.996094 48.773438 47.023438 C 48.542969 47.136719 48.222656 47.277344 47.851562 47.332031 C 47.484375 47.394531 47.078125 47.402344 46.703125 47.347656 C 46.609375 47.324219 46.523438 47.296875 46.441406 47.277344 C 46.398438 47.265625 46.359375 47.253906 46.324219 47.242188 C 46.285156 47.230469 46.25 47.214844 46.214844 47.203125 C 46.144531 47.175781 46.078125 47.152344 46.015625 47.132812 C 45.953125 47.105469 45.898438 47.078125 45.839844 47.050781 C 45.785156 47.023438 45.726562 47 45.675781 46.972656 C 45.625 46.9375 45.574219 46.90625 45.519531 46.875 C 45.472656 46.839844 45.417969 46.808594 45.367188 46.765625 C 45.320312 46.726562 45.269531 46.679688 45.21875 46.632812 C 44.855469 46.402344 44.546875 46.097656 44.292969 45.699219 C 44.042969 45.304688 43.84375 44.808594 43.78125 44.191406 C 43.75 43.570312 43.847656 42.960938 44.09375 42.40625 C 44.34375 41.855469 44.726562 41.351562 45.253906 40.980469 C 45.3125 40.953125 45.371094 40.898438 45.449219 40.859375 C 45.523438 40.816406 45.601562 40.769531 45.675781 40.726562 C 45.832031 40.652344 45.980469 40.585938 46.058594 40.589844 C 46.132812 40.554688 46.222656 40.515625 46.324219 40.476562 C 46.425781 40.445312 46.535156 40.421875 46.644531 40.394531 C 46.757812 40.375 46.871094 40.367188 46.976562 40.359375 C 47.078125 40.34375 47.175781 40.355469 47.257812 40.355469 C 47.417969 40.300781 47.441406 40.332031 47.601562 40.320312 C 47.785156 40.328125 47.953125 40.371094 48.117188 40.394531 C 48.28125 40.4375 48.441406 40.46875 48.597656 40.527344 C 48.910156 40.628906 49.214844 40.769531 49.539062 40.976562 C 49.847656 41.191406 50.003906 41.378906 50.148438 41.53125 C 50.28125 41.695312 50.394531 41.832031 50.542969 42.035156 C 50.558594 42.066406 50.578125 42.09375 50.59375 42.121094 C 50.605469 42.148438 50.617188 42.175781 50.628906 42.199219 C 50.648438 42.25 50.667969 42.292969 50.6875 42.335938 C 50.703125 42.378906 50.722656 42.417969 50.742188 42.460938 C 50.757812 42.503906 50.78125 42.550781 50.808594 42.601562 C 50.847656 42.714844 50.90625 42.761719 50.878906 42.800781 C 50.910156 42.949219 50.9375 43.042969 50.953125 43.113281 C 50.964844 43.183594 50.96875 43.230469 50.945312 43.285156 C 50.953125 43.335938 50.964844 43.394531 50.972656 43.457031 C 50.980469 43.515625 50.984375 43.578125 50.984375 43.632812 C 50.992188 43.742188 50.988281 43.828125 50.957031 43.835938 Z M 50.957031 43.835938 " fill-opacity="1" fill-rule="evenodd"/><path fill="#f26862" d="M 47.242188 47.3125 C 47.09375 47.261719 47.148438 47.003906 47.074219 46.878906 L 47.105469 46.421875 C 47.097656 46.339844 47.15625 46.351562 47.207031 46.351562 C 47.15625 46.3125 47.121094 46.226562 47.1875 46.160156 C 47.195312 46.058594 47.191406 45.941406 47.242188 45.894531 C 47.175781 45.785156 47.257812 45.527344 47.25 45.359375 C 47.160156 44.710938 47.320312 43.738281 47.3125 43.175781 C 47.363281 43.0625 47.320312 42.988281 47.40625 42.878906 C 47.425781 42.765625 47.347656 42.753906 47.367188 42.644531 C 47.394531 42.542969 47.355469 42.335938 47.433594 42.304688 C 47.390625 42.128906 47.359375 41.761719 47.445312 41.574219 C 47.339844 41.507812 47.464844 41.433594 47.410156 41.339844 L 47.449219 40.996094 C 47.457031 40.796875 47.339844 40.535156 47.460938 40.34375 C 47.527344 40.289062 47.644531 40.394531 47.597656 40.550781 C 47.640625 40.636719 47.589844 40.804688 47.621094 40.902344 C 47.675781 41.160156 47.59375 41.371094 47.640625 41.59375 C 47.609375 41.820312 47.628906 42.074219 47.625 42.324219 C 47.621094 42.554688 47.617188 42.789062 47.585938 43.050781 C 47.539062 43.15625 47.550781 43.34375 47.484375 43.421875 C 47.5625 43.488281 47.496094 43.566406 47.492188 43.652344 C 47.492188 43.753906 47.539062 43.875 47.457031 44.074219 C 47.457031 44.410156 47.492188 44.726562 47.410156 44.988281 C 47.519531 45.214844 47.449219 45.414062 47.445312 45.757812 C 47.398438 46.007812 47.382812 46.28125 47.285156 46.625 C 47.300781 46.851562 47.4375 47.171875 47.242188 47.3125 Z M 47.242188 47.3125 " fill-opacity="1" fill-rule="evenodd"/><path fill="#f26862" d="M 50.800781 42.796875 C 50.777344 42.949219 50.511719 42.933594 50.398438 43.023438 L 49.941406 43.066406 C 49.859375 43.085938 49.863281 43.027344 49.855469 42.976562 C 49.824219 43.03125 49.746094 43.082031 49.667969 43.027344 C 49.566406 43.035156 49.449219 43.058594 49.398438 43.019531 C 49.300781 43.101562 49.03125 43.066406 48.867188 43.105469 C 48.242188 43.304688 47.257812 43.34375 46.710938 43.476562 C 46.589844 43.453125 46.527344 43.511719 46.398438 43.449219 C 46.285156 43.457031 46.289062 43.535156 46.179688 43.542969 C 46.074219 43.535156 45.882812 43.621094 45.832031 43.554688 C 45.671875 43.636719 45.320312 43.753906 45.121094 43.714844 C 45.082031 43.832031 44.980469 43.730469 44.902344 43.808594 L 44.558594 43.859375 C 44.363281 43.902344 44.140625 44.078125 43.925781 44.015625 C 43.859375 43.964844 43.925781 43.824219 44.09375 43.828125 C 44.164062 43.765625 44.339844 43.769531 44.421875 43.714844 C 44.660156 43.597656 44.886719 43.621094 45.09375 43.523438 C 45.320312 43.5 45.5625 43.417969 45.808594 43.363281 C 46.03125 43.3125 46.265625 43.265625 46.527344 43.238281 C 46.640625 43.261719 46.824219 43.210938 46.914062 43.257812 C 46.960938 43.164062 47.054688 43.214844 47.140625 43.199219 C 47.238281 43.179688 47.347656 43.105469 47.558594 43.148438 C 47.890625 43.078125 48.195312 42.984375 48.472656 43.015625 C 48.675781 42.863281 48.882812 42.898438 49.226562 42.84375 C 49.480469 42.847656 49.757812 42.8125 50.113281 42.855469 C 50.332031 42.800781 50.636719 42.625 50.800781 42.796875 Z M 50.800781 42.796875 " fill-opacity="1" fill-rule="evenodd"/><path fill="#f26862" d="M 45.578125 46.855469 C 45.460938 46.757812 45.613281 46.542969 45.59375 46.398438 L 45.800781 45.996094 C 45.824219 45.917969 45.875 45.953125 45.921875 45.972656 C 45.890625 45.917969 45.894531 45.824219 45.980469 45.792969 C 46.027344 45.703125 46.070312 45.59375 46.132812 45.570312 C 46.113281 45.449219 46.292969 45.246094 46.351562 45.089844 C 46.527344 44.46875 47.0625 43.652344 47.285156 43.140625 C 47.375 43.058594 47.363281 42.976562 47.488281 42.910156 C 47.550781 42.820312 47.484375 42.773438 47.546875 42.683594 C 47.617188 42.601562 47.664062 42.402344 47.746094 42.402344 C 47.78125 42.226562 47.902344 41.882812 48.058594 41.75 C 47.988281 41.648438 48.132812 41.632812 48.117188 41.523438 L 48.292969 41.230469 C 48.382812 41.054688 48.386719 40.769531 48.574219 40.648438 C 48.65625 40.628906 48.722656 40.773438 48.613281 40.894531 C 48.617188 40.988281 48.5 41.121094 48.492188 41.21875 C 48.433594 41.472656 48.273438 41.628906 48.222656 41.851562 C 48.105469 42.039062 48.019531 42.273438 47.914062 42.5 C 47.816406 42.707031 47.71875 42.917969 47.582031 43.136719 C 47.496094 43.214844 47.429688 43.390625 47.339844 43.433594 C 47.386719 43.523438 47.292969 43.570312 47.257812 43.648438 C 47.214844 43.738281 47.210938 43.867188 47.054688 44.007812 C 46.921875 44.3125 46.828125 44.613281 46.644531 44.820312 C 46.65625 45.066406 46.515625 45.21875 46.375 45.527344 C 46.234375 45.734375 46.113281 45.980469 45.886719 46.253906 C 45.816406 46.460938 45.8125 46.808594 45.578125 46.855469 Z M 45.578125 46.855469 " fill-opacity="1" fill-rule="evenodd"/><path fill="#f26862" d="M 49.9375 46.1875 C 49.792969 46.246094 49.671875 46.019531 49.535156 45.976562 L 49.261719 45.625 C 49.203125 45.570312 49.253906 45.542969 49.292969 45.507812 C 49.226562 45.511719 49.144531 45.472656 49.152344 45.382812 C 49.09375 45.304688 49.011719 45.222656 49.015625 45.15625 C 48.894531 45.125 48.785156 44.882812 48.664062 44.769531 C 48.171875 44.371094 47.613281 43.597656 47.207031 43.226562 C 47.160156 43.117188 47.082031 43.097656 47.0625 42.960938 C 46.996094 42.875 46.929688 42.921875 46.867188 42.835938 C 46.816406 42.746094 46.640625 42.640625 46.667969 42.5625 C 46.511719 42.480469 46.226562 42.265625 46.148438 42.082031 C 46.027344 42.121094 46.058594 41.980469 45.949219 41.960938 L 45.722656 41.71875 C 45.582031 41.585938 45.308594 41.511719 45.246094 41.300781 C 45.25 41.21875 45.402344 41.191406 45.488281 41.324219 C 45.582031 41.347656 45.675781 41.492188 45.765625 41.527344 C 45.992188 41.648438 46.097656 41.84375 46.292969 41.953125 C 46.4375 42.121094 46.632812 42.269531 46.8125 42.4375 C 46.976562 42.589844 47.144531 42.75 47.304688 42.945312 C 47.347656 43.050781 47.492188 43.171875 47.5 43.269531 C 47.601562 43.257812 47.609375 43.359375 47.671875 43.417969 C 47.742188 43.488281 47.859375 43.539062 47.9375 43.730469 C 48.171875 43.960938 48.414062 44.160156 48.53125 44.398438 C 48.765625 44.484375 48.847656 44.671875 49.074219 44.921875 C 49.207031 45.132812 49.378906 45.339844 49.53125 45.65625 C 49.6875 45.804688 49.996094 45.960938 49.9375 46.1875 Z M 49.9375 46.1875 " fill-opacity="1" fill-rule="evenodd"/><path fill="#f26862" d="M 15.5625 46.226562 C 15.46875 46.222656 15.726562 46.015625 15.804688 45.894531 C 15.8125 45.855469 15.851562 45.796875 15.894531 45.730469 C 15.914062 45.699219 15.941406 45.667969 15.960938 45.632812 C 15.976562 45.601562 15.992188 45.566406 16.003906 45.539062 C 16.027344 45.5 16.054688 45.453125 16.082031 45.410156 C 16.09375 45.386719 16.109375 45.367188 16.121094 45.34375 C 16.132812 45.320312 16.140625 45.296875 16.152344 45.277344 C 16.195312 45.1875 16.234375 45.113281 16.269531 45.074219 C 16.296875 44.957031 16.332031 44.832031 16.371094 44.703125 C 16.386719 44.636719 16.402344 44.570312 16.417969 44.503906 C 16.425781 44.46875 16.433594 44.433594 16.441406 44.398438 C 16.445312 44.363281 16.449219 44.328125 16.453125 44.289062 C 16.457031 44.222656 16.460938 44.160156 16.460938 44.097656 C 16.464844 44.035156 16.457031 43.96875 16.457031 43.890625 C 16.457031 43.742188 16.445312 43.597656 16.429688 43.433594 C 16.378906 43.109375 16.261719 42.699219 16.0625 42.3125 C 15.867188 41.925781 15.589844 41.566406 15.320312 41.28125 C 15.25 41.222656 15.195312 41.179688 15.136719 41.144531 C 15.078125 41.113281 15.019531 41.078125 14.945312 41.027344 C 14.34375 40.589844 13.746094 40.414062 13.152344 40.386719 L 13.039062 40.378906 L 12.925781 40.382812 C 12.851562 40.386719 12.777344 40.390625 12.699219 40.394531 C 12.550781 40.417969 12.394531 40.433594 12.238281 40.476562 C 12.078125 40.511719 11.925781 40.574219 11.761719 40.632812 C 11.683594 40.671875 11.601562 40.710938 11.519531 40.75 C 11.4375 40.789062 11.359375 40.84375 11.277344 40.890625 C 11.203125 40.925781 11.140625 40.964844 11.089844 41.007812 C 11.035156 41.046875 10.988281 41.082031 10.941406 41.117188 C 10.855469 41.1875 10.785156 41.25 10.683594 41.296875 C 10.269531 41.714844 9.96875 42.230469 9.773438 42.726562 C 9.757812 42.832031 9.753906 42.9375 9.738281 43.042969 C 9.726562 43.152344 9.730469 43.261719 9.71875 43.378906 C 9.710938 43.664062 9.703125 43.921875 9.738281 44.195312 C 9.765625 44.46875 9.835938 44.757812 9.984375 45.074219 C 9.976562 45.054688 9.972656 45.117188 9.996094 45.140625 C 10.085938 45.257812 10.324219 45.667969 10.515625 45.875 C 10.550781 45.914062 10.585938 45.953125 10.628906 45.996094 C 10.648438 46.015625 10.671875 46.039062 10.691406 46.0625 C 10.714844 46.082031 10.742188 46.105469 10.765625 46.125 C 10.820312 46.167969 10.871094 46.214844 10.929688 46.261719 C 10.984375 46.308594 11.050781 46.347656 11.117188 46.394531 C 11.148438 46.417969 11.183594 46.4375 11.214844 46.460938 C 11.25 46.484375 11.285156 46.5 11.320312 46.519531 C 11.394531 46.558594 11.464844 46.601562 11.539062 46.636719 C 11.617188 46.667969 11.695312 46.703125 11.773438 46.734375 C 11.847656 46.765625 11.929688 46.785156 12.007812 46.808594 C 12.324219 46.933594 12.710938 47.011719 13.128906 46.996094 C 13.523438 47.011719 13.957031 46.929688 14.355469 46.769531 C 14.757812 46.613281 15.125 46.378906 15.441406 46.128906 C 15.527344 46.136719 15.339844 46.273438 15.34375 46.320312 C 15.320312 46.390625 15.640625 46.070312 15.472656 46.257812 C 15.566406 46.265625 15.230469 46.53125 15.171875 46.535156 C 14.992188 46.6875 14.847656 46.742188 14.703125 46.816406 C 14.414062 46.976562 14.066406 47.101562 13.699219 47.164062 C 13.332031 47.222656 12.949219 47.214844 12.597656 47.160156 C 12.5 47.140625 12.414062 47.136719 12.339844 47.121094 C 12.265625 47.105469 12.199219 47.089844 12.136719 47.078125 C 12.105469 47.070312 12.074219 47.066406 12.042969 47.058594 C 12.011719 47.046875 11.980469 47.039062 11.949219 47.027344 C 11.886719 47.003906 11.824219 46.976562 11.75 46.945312 C 11.507812 46.867188 11.179688 46.738281 10.878906 46.519531 C 10.578125 46.304688 10.28125 46.023438 10.054688 45.722656 C 10.003906 45.640625 9.964844 45.558594 9.921875 45.484375 C 9.902344 45.449219 9.878906 45.414062 9.863281 45.378906 C 9.84375 45.34375 9.828125 45.308594 9.8125 45.277344 C 9.78125 45.207031 9.753906 45.144531 9.722656 45.085938 C 9.699219 45.023438 9.679688 44.964844 9.65625 44.90625 C 9.636719 44.847656 9.613281 44.789062 9.597656 44.734375 C 9.582031 44.675781 9.570312 44.617188 9.554688 44.558594 C 9.546875 44.496094 9.527344 44.4375 9.523438 44.375 C 9.519531 44.308594 9.515625 44.242188 9.515625 44.175781 C 9.421875 43.753906 9.417969 43.320312 9.523438 42.863281 C 9.628906 42.40625 9.839844 41.917969 10.234375 41.4375 C 10.65625 40.972656 11.160156 40.613281 11.726562 40.394531 C 12.296875 40.179688 12.925781 40.09375 13.558594 40.199219 C 13.621094 40.21875 13.703125 40.226562 13.785156 40.253906 C 13.867188 40.273438 13.957031 40.296875 14.039062 40.316406 C 14.207031 40.375 14.355469 40.433594 14.410156 40.492188 C 14.488281 40.515625 14.582031 40.554688 14.675781 40.597656 C 14.769531 40.644531 14.867188 40.707031 14.960938 40.765625 C 15.054688 40.828125 15.140625 40.902344 15.222656 40.96875 C 15.304688 41.035156 15.367188 41.109375 15.425781 41.167969 C 15.574219 41.242188 15.570312 41.28125 15.691406 41.382812 C 15.816406 41.515625 15.90625 41.664062 16.003906 41.800781 C 16.085938 41.945312 16.179688 42.078125 16.246094 42.230469 C 16.398438 42.519531 16.511719 42.835938 16.59375 43.210938 C 16.660156 43.578125 16.640625 43.820312 16.628906 44.03125 C 16.609375 44.238281 16.589844 44.414062 16.550781 44.660156 C 16.542969 44.695312 16.535156 44.730469 16.527344 44.757812 C 16.515625 44.789062 16.503906 44.816406 16.496094 44.839844 C 16.472656 44.890625 16.457031 44.933594 16.4375 44.976562 C 16.421875 45.019531 16.40625 45.058594 16.390625 45.101562 C 16.371094 45.144531 16.351562 45.195312 16.335938 45.25 C 16.28125 45.359375 16.289062 45.433594 16.246094 45.441406 C 16.160156 45.566406 16.113281 45.652344 16.074219 45.714844 C 16.035156 45.773438 16 45.804688 15.949219 45.832031 C 15.914062 45.871094 15.878906 45.921875 15.84375 45.96875 C 15.808594 46.019531 15.765625 46.0625 15.730469 46.101562 C 15.652344 46.183594 15.589844 46.242188 15.5625 46.226562 Z M 15.5625 46.226562 " fill-opacity="1" fill-rule="evenodd"/><path fill="#f26862" d="M 16.53125 43.890625 C 16.480469 44.039062 16.222656 43.984375 16.097656 44.058594 L 15.636719 44.027344 C 15.550781 44.035156 15.566406 43.976562 15.566406 43.925781 C 15.523438 43.976562 15.4375 44.011719 15.371094 43.941406 C 15.269531 43.933594 15.152344 43.9375 15.105469 43.890625 C 14.996094 43.957031 14.734375 43.875 14.566406 43.882812 C 13.914062 43.96875 12.9375 43.8125 12.367188 43.820312 C 12.253906 43.769531 12.179688 43.8125 12.070312 43.726562 C 11.957031 43.707031 11.945312 43.785156 11.832031 43.765625 C 11.730469 43.738281 11.523438 43.777344 11.492188 43.699219 C 11.3125 43.742188 10.945312 43.773438 10.757812 43.6875 C 10.691406 43.792969 10.617188 43.667969 10.519531 43.726562 L 10.175781 43.6875 C 9.972656 43.679688 9.710938 43.792969 9.515625 43.671875 C 9.464844 43.609375 9.570312 43.488281 9.726562 43.535156 C 9.8125 43.496094 9.984375 43.546875 10.078125 43.511719 C 10.339844 43.460938 10.554688 43.539062 10.777344 43.496094 C 11.003906 43.523438 11.257812 43.503906 11.511719 43.507812 C 11.742188 43.511719 11.980469 43.515625 12.242188 43.550781 C 12.347656 43.597656 12.539062 43.585938 12.617188 43.652344 C 12.683594 43.570312 12.761719 43.636719 12.851562 43.640625 C 12.953125 43.640625 13.074219 43.59375 13.269531 43.679688 C 13.609375 43.675781 13.929688 43.640625 14.191406 43.722656 C 14.421875 43.613281 14.621094 43.683594 14.964844 43.6875 C 15.21875 43.734375 15.496094 43.75 15.839844 43.847656 C 16.066406 43.828125 16.390625 43.695312 16.53125 43.890625 Z M 16.53125 43.890625 " fill-opacity="1" fill-rule="evenodd"/><path fill="#f26862" d="M 11.984375 40.351562 C 12.140625 40.378906 12.121094 40.640625 12.214844 40.753906 L 12.257812 41.207031 C 12.28125 41.289062 12.21875 41.285156 12.167969 41.292969 C 12.226562 41.324219 12.273438 41.402344 12.21875 41.480469 C 12.226562 41.582031 12.25 41.695312 12.210938 41.75 C 12.296875 41.84375 12.257812 42.113281 12.296875 42.277344 C 12.496094 42.894531 12.539062 43.871094 12.671875 44.417969 C 12.648438 44.539062 12.703125 44.601562 12.644531 44.730469 C 12.648438 44.839844 12.730469 44.835938 12.738281 44.945312 C 12.730469 45.050781 12.816406 45.242188 12.75 45.292969 C 12.832031 45.453125 12.949219 45.800781 12.910156 46 C 13.03125 46.035156 12.925781 46.140625 13.007812 46.214844 L 13.054688 46.554688 C 13.097656 46.75 13.277344 46.972656 13.214844 47.183594 C 13.164062 47.253906 13.019531 47.183594 13.027344 47.019531 C 12.964844 46.949219 12.964844 46.773438 12.910156 46.691406 C 12.792969 46.457031 12.816406 46.230469 12.71875 46.023438 C 12.695312 45.800781 12.613281 45.5625 12.558594 45.316406 C 12.507812 45.09375 12.457031 44.859375 12.433594 44.601562 C 12.457031 44.488281 12.402344 44.304688 12.449219 44.214844 C 12.359375 44.167969 12.40625 44.078125 12.390625 43.992188 C 12.371094 43.890625 12.296875 43.785156 12.34375 43.574219 C 12.269531 43.246094 12.175781 42.941406 12.207031 42.667969 C 12.054688 42.464844 12.089844 42.257812 12.035156 41.917969 C 12.039062 41.664062 12.003906 41.390625 12.046875 41.035156 C 11.992188 40.816406 11.8125 40.515625 11.984375 40.351562 Z M 11.984375 40.351562 " fill-opacity="1" fill-rule="evenodd"/><path fill="#f26862" d="M 16.074219 45.542969 C 15.972656 45.660156 15.757812 45.507812 15.613281 45.527344 L 15.207031 45.320312 C 15.128906 45.296875 15.164062 45.246094 15.183594 45.199219 C 15.128906 45.230469 15.035156 45.230469 15 45.140625 C 14.910156 45.097656 14.804688 45.054688 14.78125 44.992188 C 14.65625 45.011719 14.449219 44.832031 14.296875 44.773438 C 13.667969 44.597656 12.847656 44.070312 12.335938 43.847656 C 12.25 43.757812 12.167969 43.769531 12.101562 43.644531 C 12.007812 43.582031 11.964844 43.648438 11.871094 43.585938 C 11.792969 43.519531 11.589844 43.472656 11.589844 43.386719 C 11.414062 43.355469 11.066406 43.234375 10.9375 43.082031 C 10.832031 43.148438 10.816406 43.003906 10.707031 43.019531 L 10.414062 42.84375 C 10.234375 42.753906 9.949219 42.75 9.824219 42.566406 C 9.804688 42.484375 9.949219 42.417969 10.074219 42.527344 C 10.167969 42.523438 10.300781 42.636719 10.398438 42.648438 C 10.652344 42.707031 10.8125 42.863281 11.035156 42.914062 C 11.226562 43.035156 11.460938 43.117188 11.6875 43.222656 C 11.894531 43.316406 12.109375 43.417969 12.328125 43.550781 C 12.40625 43.636719 12.582031 43.703125 12.628906 43.792969 C 12.71875 43.746094 12.765625 43.839844 12.84375 43.875 C 12.933594 43.917969 13.0625 43.921875 13.207031 44.078125 C 13.511719 44.210938 13.816406 44.300781 14.023438 44.484375 C 14.273438 44.46875 14.425781 44.613281 14.734375 44.75 C 14.945312 44.894531 15.191406 45.011719 15.464844 45.234375 C 15.675781 45.308594 16.023438 45.308594 16.074219 45.542969 Z M 16.074219 45.542969 " fill-opacity="1" fill-rule="evenodd"/><path fill="#f26862" d="M 15.398438 41.210938 C 15.460938 41.355469 15.230469 41.476562 15.1875 41.613281 L 14.832031 41.882812 C 14.78125 41.941406 14.75 41.890625 14.714844 41.851562 C 14.71875 41.917969 14.679688 42 14.589844 41.992188 C 14.507812 42.050781 14.425781 42.132812 14.363281 42.125 C 14.328125 42.246094 14.085938 42.355469 13.972656 42.476562 C 13.570312 42.96875 12.792969 43.519531 12.421875 43.925781 C 12.308594 43.96875 12.289062 44.050781 12.152344 44.070312 C 12.0625 44.132812 12.113281 44.199219 12.027344 44.265625 C 11.9375 44.316406 11.832031 44.488281 11.753906 44.460938 C 11.667969 44.613281 11.453125 44.898438 11.269531 44.976562 C 11.304688 45.09375 11.164062 45.066406 11.148438 45.175781 L 10.902344 45.398438 C 10.765625 45.542969 10.691406 45.808594 10.480469 45.875 C 10.398438 45.871094 10.371094 45.71875 10.507812 45.632812 C 10.527344 45.542969 10.671875 45.445312 10.707031 45.355469 C 10.832031 45.132812 11.027344 45.027344 11.136719 44.835938 C 11.304688 44.691406 11.457031 44.496094 11.625 44.316406 C 11.777344 44.152344 11.941406 43.988281 12.136719 43.828125 C 12.242188 43.785156 12.363281 43.640625 12.464844 43.632812 C 12.449219 43.53125 12.554688 43.523438 12.613281 43.464844 C 12.683594 43.394531 12.730469 43.277344 12.929688 43.199219 C 13.160156 42.96875 13.359375 42.726562 13.601562 42.609375 C 13.683594 42.375 13.875 42.292969 14.125 42.066406 C 14.335938 41.9375 14.546875 41.765625 14.863281 41.617188 C 15.015625 41.460938 15.167969 41.152344 15.398438 41.210938 Z M 15.398438 41.210938 " fill-opacity="1" fill-rule="evenodd"/><path fill="#cad3d3" d="M 12.332031 26.234375 C 12.179688 26.199219 12.195312 25.855469 12.101562 25.707031 L 12.070312 25.113281 C 12.050781 25.007812 12.113281 25.019531 12.164062 25.011719 C 12.105469 24.964844 12.0625 24.859375 12.121094 24.765625 C 12.117188 24.632812 12.097656 24.484375 12.140625 24.417969 C 12.0625 24.289062 12.117188 23.941406 12.097656 23.726562 C 11.96875 23.035156 12.023438 22.03125 12.039062 21.316406 L 12.097656 21.375 C 11.9375 21.375 11.804688 21.375 11.683594 21.382812 C 11.535156 21.335938 11.441406 21.382812 11.289062 21.300781 C 11.144531 21.289062 11.132812 21.367188 10.988281 21.355469 C 10.855469 21.328125 10.589844 21.378906 10.542969 21.304688 C 10.316406 21.355469 9.84375 21.40625 9.59375 21.332031 C 9.519531 21.441406 9.410156 21.320312 9.292969 21.382812 L 8.84375 21.363281 C 8.585938 21.367188 8.257812 21.5 7.996094 21.394531 C 7.921875 21.332031 8.042969 21.207031 8.253906 21.246094 C 8.359375 21.199219 8.582031 21.234375 8.703125 21.199219 C 9.03125 21.128906 9.316406 21.195312 9.601562 21.136719 C 9.894531 21.15625 10.222656 21.121094 10.550781 21.113281 C 10.847656 21.101562 11.15625 21.09375 11.496094 21.117188 C 11.636719 21.160156 11.882812 21.140625 11.992188 21.203125 C 12.023438 21.167969 12.0625 21.15625 12.105469 21.160156 L 12.265625 21.164062 L 12.257812 21.328125 C 12.253906 21.382812 12.234375 21.445312 12.234375 21.511719 C 12.238281 21.640625 12.289062 21.792969 12.210938 22.050781 C 12.230469 22.484375 12.285156 22.890625 12.222656 23.234375 C 12.351562 23.515625 12.296875 23.773438 12.332031 24.21875 C 12.308594 24.542969 12.328125 24.898438 12.277344 25.351562 C 12.324219 25.636719 12.503906 26.027344 12.332031 26.234375 Z M 12.332031 26.234375 " fill-opacity="1" fill-rule="evenodd"/><path fill="#cad3d3" d="M 12.125 21.128906 C 12.265625 21.179688 12.195312 21.386719 12.242188 21.503906 C 12.210938 21.628906 12.160156 21.75 12.113281 21.871094 C 12.101562 21.9375 12.046875 21.90625 12 21.890625 C 12.035156 21.9375 12.046875 22.019531 11.964844 22.046875 C 11.925781 22.121094 11.890625 22.214844 11.832031 22.230469 C 11.855469 22.339844 11.6875 22.5 11.625 22.621094 C 11.527344 22.878906 11.320312 23.160156 11.085938 23.398438 C 10.847656 23.640625 10.582031 23.835938 10.394531 23.988281 C 10.292969 24.011719 10.265625 24.085938 10.136719 24.066406 C 10.050781 24.101562 10.082031 24.179688 9.992188 24.210938 C 9.945312 24.21875 9.890625 24.257812 9.835938 24.28125 C 9.78125 24.304688 9.730469 24.320312 9.703125 24.292969 C 9.644531 24.34375 9.539062 24.410156 9.425781 24.449219 C 9.308594 24.492188 9.183594 24.511719 9.09375 24.480469 C 9.054688 24.597656 8.96875 24.484375 8.886719 24.550781 C 8.78125 24.550781 8.675781 24.535156 8.566406 24.515625 C 8.476562 24.503906 8.359375 24.511719 8.242188 24.488281 C 8.128906 24.472656 8.015625 24.414062 7.960938 24.316406 C 7.953125 24.277344 7.988281 24.242188 8.039062 24.230469 C 8.085938 24.222656 8.144531 24.234375 8.203125 24.28125 C 8.285156 24.273438 8.417969 24.355469 8.507812 24.335938 C 8.621094 24.324219 8.714844 24.328125 8.808594 24.332031 C 8.902344 24.335938 8.996094 24.332031 9.082031 24.289062 C 9.265625 24.285156 9.460938 24.195312 9.640625 24.109375 C 9.683594 24.089844 9.722656 24.066406 9.765625 24.046875 C 9.804688 24.023438 9.847656 24.003906 9.890625 23.980469 C 9.976562 23.9375 10.058594 23.882812 10.152344 23.835938 C 10.246094 23.820312 10.363281 23.71875 10.449219 23.722656 C 10.4375 23.625 10.527344 23.632812 10.582031 23.585938 C 10.640625 23.527344 10.675781 23.425781 10.84375 23.363281 C 11.027344 23.15625 11.144531 22.925781 11.332031 22.796875 C 11.332031 22.6875 11.375 22.613281 11.421875 22.53125 C 11.449219 22.488281 11.476562 22.449219 11.507812 22.402344 C 11.539062 22.355469 11.570312 22.300781 11.601562 22.242188 C 11.667969 22.164062 11.71875 22.070312 11.78125 21.976562 C 11.839844 21.875 11.910156 21.773438 11.988281 21.652344 C 12.007812 21.566406 11.988281 21.449219 11.996094 21.351562 C 12 21.253906 12.019531 21.175781 12.125 21.128906 Z M 12.125 21.128906 " fill-opacity="1" fill-rule="evenodd"/><g fill="#000000" fill-opacity="1"><g transform="translate(58.947378, 44.551305)"><g><path d="M 22.484375 -7.867188 C 22.4375 -7.867188 22.4375 -7.867188 22.4375 -7.867188 C 22.4375 -8.984375 22.4375 -10.148438 22.4375 -11.308594 C 22.394531 -12.695312 22.527344 -14.082031 22.304688 -15.464844 C 22.214844 -16.046875 22.214844 -16.136719 21.632812 -16.136719 C 20.695312 -16.089844 19.757812 -16.046875 18.816406 -16.046875 C 16.894531 -16.089844 14.972656 -15.914062 13.050781 -15.914062 C 12.695312 -15.914062 12.515625 -15.824219 12.425781 -15.421875 C 12.335938 -15.152344 12.292969 -14.839844 12.292969 -14.527344 C 12.292969 -14.214844 12.335938 -13.902344 12.335938 -13.542969 C 12.335938 -12.738281 12.382812 -11.933594 12.382812 -11.085938 C 12.382812 -10.726562 12.515625 -10.59375 12.875 -10.460938 C 13.007812 -10.414062 13.1875 -10.414062 13.363281 -10.371094 C 14.347656 -10.324219 15.332031 -10.28125 16.316406 -10.234375 C 16.539062 -10.191406 16.582031 -10.191406 16.582031 -9.96875 C 16.628906 -9.074219 16.628906 -8.222656 16.628906 -7.332031 C 16.628906 -7.0625 16.628906 -6.75 16.359375 -6.570312 C 15.734375 -6.257812 15.152344 -5.855469 14.527344 -5.585938 C 13.1875 -5.050781 11.800781 -5.007812 10.460938 -5.542969 C 10.101562 -5.675781 9.789062 -5.855469 9.519531 -6.078125 C 8.984375 -6.527344 8.582031 -7.152344 8.269531 -7.777344 C 8.046875 -8.269531 7.824219 -8.804688 7.734375 -9.386719 C 7.554688 -10.28125 7.332031 -11.175781 7.375 -12.113281 C 7.375 -12.917969 7.285156 -13.722656 7.375 -14.527344 C 7.507812 -15.601562 7.6875 -16.71875 7.6875 -17.789062 C 7.644531 -18.414062 7.734375 -19.085938 7.867188 -19.667969 C 7.957031 -20.070312 8.089844 -20.472656 8.179688 -20.828125 C 8.402344 -21.8125 8.625 -22.796875 9.207031 -23.644531 C 9.746094 -24.449219 10.371094 -25.210938 11.308594 -25.613281 C 12.15625 -26.015625 13.007812 -26.371094 13.992188 -26.328125 C 14.660156 -26.28125 15.285156 -26.105469 15.914062 -25.835938 C 16.179688 -25.703125 16.40625 -25.433594 16.492188 -25.121094 C 16.582031 -24.671875 16.582031 -24.183594 16.628906 -23.734375 C 16.71875 -23.109375 16.761719 -22.484375 16.851562 -21.859375 C 16.851562 -21.722656 16.941406 -21.542969 17.074219 -21.5 C 17.523438 -21.277344 17.96875 -21.144531 18.503906 -21.230469 C 18.730469 -21.230469 18.90625 -21.277344 19.132812 -21.277344 C 19.980469 -21.367188 20.785156 -21.410156 21.589844 -21.457031 C 21.945312 -21.5 22.125 -21.679688 22.171875 -22.035156 C 22.214844 -22.574219 22.261719 -23.152344 22.125 -23.734375 C 22.125 -23.78125 22.125 -23.871094 22.125 -23.957031 C 22.035156 -24.941406 21.945312 -25.878906 21.859375 -26.863281 C 21.722656 -27.800781 21.457031 -28.695312 20.875 -29.457031 C 20.515625 -29.949219 20.023438 -30.261719 19.535156 -30.484375 C 18.90625 -30.796875 18.371094 -31.15625 17.746094 -31.378906 C 17.523438 -31.46875 17.296875 -31.648438 17.074219 -31.691406 C 16.671875 -31.824219 16.226562 -31.914062 15.777344 -32.003906 C 15.421875 -32.050781 15.0625 -32.050781 14.707031 -32.050781 C 14.347656 -32.09375 13.992188 -32.050781 13.632812 -32.050781 C 13.363281 -32.050781 13.050781 -32.09375 12.738281 -32.050781 C 11.53125 -31.960938 10.371094 -31.648438 9.253906 -31.109375 C 8.539062 -30.753906 7.777344 -30.304688 7.0625 -29.902344 C 6.972656 -29.859375 6.929688 -29.769531 6.839844 -29.679688 C 6.078125 -29.054688 5.410156 -28.339844 4.78125 -27.625 C 4.695312 -27.488281 4.605469 -27.355469 4.515625 -27.222656 C 4.378906 -26.863281 4.246094 -26.550781 4.023438 -26.28125 C 3.710938 -25.835938 3.488281 -25.390625 3.351562 -24.898438 C 3.21875 -24.449219 3.085938 -23.957031 2.949219 -23.511719 C 2.457031 -21.722656 2.101562 -19.9375 1.964844 -18.101562 C 1.878906 -16.136719 1.832031 -14.167969 1.789062 -12.203125 C 1.789062 -11.398438 1.832031 -10.636719 1.921875 -9.878906 C 2.011719 -8.984375 2.144531 -8.089844 2.28125 -7.152344 C 2.324219 -6.929688 2.414062 -6.703125 2.503906 -6.480469 C 2.546875 -6.214844 2.683594 -5.945312 2.726562 -5.722656 C 2.949219 -4.917969 3.308594 -4.203125 3.84375 -3.53125 C 4.023438 -3.308594 4.246094 -3.085938 4.378906 -2.859375 C 5.09375 -1.878906 5.855469 -0.894531 6.972656 -0.359375 C 7.464844 -0.132812 7.867188 0.179688 8.359375 0.269531 C 9.207031 0.492188 10.058594 0.671875 10.953125 0.671875 C 11.085938 0.714844 11.21875 0.714844 11.398438 0.761719 C 11.84375 0.761719 12.246094 0.804688 12.695312 0.761719 C 13.902344 0.582031 15.109375 0.179688 16.269531 -0.269531 C 16.539062 -0.402344 16.628906 -0.359375 16.628906 0 C 16.628906 0.402344 16.628906 0.402344 17.074219 0.402344 C 18.058594 0.359375 19.085938 0.359375 20.113281 0.3125 C 20.695312 0.269531 21.230469 0.269531 21.769531 0.269531 C 22.082031 0.222656 22.304688 0.0429688 22.304688 -0.269531 C 22.347656 -0.625 22.394531 -1.027344 22.394531 -1.386719 C 22.4375 -3.53125 22.4375 -5.675781 22.484375 -7.867188 Z M 22.484375 -7.867188 "/></g></g></g><g fill="#000000" fill-opacity="1"><g transform="translate(83.214226, 44.551305)"><g><path d="M 1.878906 -12.246094 C 1.878906 -10.058594 1.832031 -7.824219 1.878906 -5.632812 C 1.878906 -3.933594 1.921875 -2.234375 1.964844 -0.582031 C 2.011719 0.222656 2.234375 0.402344 2.996094 0.402344 C 4.023438 0.359375 5.050781 0.179688 6.078125 0.222656 C 6.660156 0.222656 7.195312 0.179688 7.777344 0.179688 C 8.804688 0.222656 9.832031 0.269531 10.863281 0.3125 C 12.335938 0.359375 13.8125 0.3125 15.242188 0.222656 C 15.511719 0.179688 15.824219 0.132812 16.046875 0.0429688 C 16.449219 -0.0429688 16.539062 -0.179688 16.582031 -0.582031 C 16.582031 -0.671875 16.582031 -0.714844 16.582031 -0.847656 C 16.628906 -1.609375 16.628906 -2.367188 16.671875 -3.171875 C 16.71875 -3.710938 16.71875 -4.203125 16.71875 -4.738281 C 16.71875 -5.140625 16.492188 -5.496094 16.226562 -5.585938 C 15.957031 -5.632812 15.734375 -5.675781 15.464844 -5.675781 C 14.882812 -5.722656 14.257812 -5.722656 13.632812 -5.765625 C 11.980469 -5.8125 10.324219 -6.035156 8.671875 -6.035156 C 8.492188 -6.035156 8.359375 -6.035156 8.179688 -6.035156 C 8 -6.035156 7.957031 -6.078125 7.957031 -6.257812 C 7.957031 -7.019531 8 -7.824219 8 -8.625 C 7.957031 -11.085938 7.957031 -13.589844 7.910156 -16.046875 C 7.867188 -17.253906 7.777344 -18.503906 7.824219 -19.710938 C 7.867188 -23.066406 7.734375 -26.371094 7.597656 -29.726562 C 7.597656 -30.214844 7.597656 -30.707031 7.597656 -31.199219 C 7.597656 -31.46875 7.421875 -31.691406 7.105469 -31.691406 C 6.929688 -31.734375 6.75 -31.734375 6.527344 -31.734375 C 5.320312 -31.691406 4.113281 -31.691406 2.859375 -31.648438 C 2.28125 -31.648438 2.011719 -31.601562 1.964844 -30.753906 C 1.921875 -29.992188 1.921875 -29.277344 1.921875 -28.472656 C 1.878906 -28.027344 1.878906 -27.578125 1.832031 -27.132812 C 1.832031 -26.371094 1.789062 -25.613281 1.789062 -24.898438 C 1.789062 -23.824219 1.832031 -22.75 1.878906 -21.679688 C 1.878906 -18.550781 1.878906 -15.375 1.878906 -12.246094 Z M 1.878906 -12.246094 "/></g></g></g><g fill="#000000" fill-opacity="1"><g transform="translate(101.716023, 44.551305)"><g><path d="M 23.554688 -16.628906 C 23.601562 -18.28125 23.378906 -19.890625 23.066406 -21.5 C 22.886719 -22.484375 22.664062 -23.46875 22.4375 -24.449219 C 22.125 -26.058594 21.367188 -27.445312 20.382812 -28.742188 C 19.9375 -29.324219 19.445312 -29.902344 18.773438 -30.351562 C 18.058594 -30.796875 17.253906 -31.15625 16.449219 -31.558594 C 16.449219 -31.558594 16.40625 -31.558594 16.40625 -31.601562 C 15.824219 -31.734375 15.285156 -31.871094 14.707031 -31.960938 C 13.8125 -32.050781 12.917969 -32.003906 12.023438 -32.003906 C 11.398438 -31.960938 10.726562 -31.914062 10.101562 -31.691406 C 9.164062 -31.378906 8.222656 -31.019531 7.421875 -30.394531 C 6.792969 -29.902344 6.078125 -29.457031 5.542969 -28.832031 C 4.917969 -28.070312 4.425781 -27.265625 3.933594 -26.417969 C 3.621094 -25.792969 3.441406 -25.121094 3.21875 -24.496094 C 2.683594 -22.886719 2.367188 -21.277344 2.191406 -19.621094 C 2.101562 -18.90625 2.054688 -18.191406 2.011719 -17.523438 C 1.964844 -16.582031 1.878906 -15.644531 1.832031 -14.707031 C 1.789062 -13.679688 1.832031 -12.648438 2.054688 -11.621094 C 2.054688 -11.441406 2.101562 -11.265625 2.101562 -11.085938 C 2.191406 -10.414062 2.234375 -9.789062 2.28125 -9.117188 C 2.414062 -8.179688 2.683594 -7.332031 2.996094 -6.480469 C 3.574219 -4.828125 4.46875 -3.308594 5.632812 -2.011719 C 5.8125 -1.832031 6.035156 -1.652344 6.214844 -1.476562 C 6.4375 -1.339844 6.617188 -1.164062 6.792969 -1.027344 C 7.421875 -0.535156 8.089844 -0.179688 8.804688 0 C 9.96875 0.359375 11.175781 0.492188 12.382812 0.535156 C 13.410156 0.535156 14.4375 0.535156 15.375 0.0429688 C 15.734375 -0.0898438 16.046875 -0.222656 16.40625 -0.359375 C 16.582031 -0.445312 16.761719 -0.582031 16.941406 -0.714844 C 17.164062 -0.894531 17.386719 -1.074219 17.613281 -1.207031 C 18.371094 -1.742188 19.085938 -2.28125 19.578125 -3.085938 C 19.980469 -3.710938 20.425781 -4.335938 20.742188 -5.007812 C 21.320312 -6.125 21.8125 -7.242188 22.171875 -8.449219 C 22.664062 -9.96875 23.109375 -11.488281 23.289062 -13.097656 C 23.332031 -13.5 23.289062 -13.902344 23.421875 -14.304688 C 23.554688 -14.75 23.511719 -15.242188 23.554688 -15.6875 C 23.554688 -16.003906 23.554688 -16.316406 23.554688 -16.628906 Z M 7.6875 -15.285156 C 7.597656 -16.71875 7.6875 -18.101562 8 -19.488281 C 8.402344 -21.1875 9.074219 -22.796875 10.191406 -24.183594 C 10.816406 -24.898438 11.667969 -25.34375 12.605469 -25.34375 C 13.542969 -25.390625 14.394531 -25.074219 15.109375 -24.539062 C 15.199219 -24.449219 15.285156 -24.40625 15.332031 -24.273438 C 15.824219 -23.554688 16.226562 -22.75 16.492188 -21.902344 C 16.851562 -20.605469 17.121094 -19.265625 17.253906 -17.96875 C 17.296875 -16.808594 17.253906 -15.6875 17.210938 -14.570312 C 17.210938 -13.855469 17.164062 -13.140625 17.03125 -12.472656 C 16.808594 -10.953125 16.492188 -9.429688 15.957031 -7.957031 C 15.734375 -7.332031 15.375 -6.792969 14.796875 -6.527344 C 14.082031 -6.125 13.277344 -5.855469 12.425781 -6.035156 C 11.933594 -6.125 11.441406 -6.214844 10.953125 -6.347656 C 9.96875 -6.617188 9.34375 -7.242188 8.851562 -8.089844 C 8.359375 -9.117188 8.136719 -10.148438 7.957031 -11.21875 C 7.734375 -12.605469 7.597656 -13.945312 7.6875 -15.285156 Z M 7.6875 -15.285156 "/></g></g></g><g fill="#000000" fill-opacity="1"><g transform="translate(127.100126, 44.551305)"><g><path d="M 1.878906 -15.421875 C 1.878906 -13.453125 1.878906 -11.441406 1.832031 -9.476562 C 1.832031 -8.582031 1.832031 -7.6875 1.832031 -6.75 C 1.832031 -4.695312 1.832031 -2.59375 1.878906 -0.492188 C 1.878906 0.0429688 1.878906 0.0898438 2.457031 0.179688 C 2.546875 0.179688 2.636719 0.179688 2.726562 0.179688 C 3.21875 0.179688 3.710938 0.132812 4.15625 0.179688 C 5.183594 0.269531 6.214844 0.269531 7.242188 0.269531 C 7.421875 0.269531 7.554688 0.222656 7.6875 0.222656 C 8.089844 0.132812 8.269531 -0.0898438 8.3125 -0.492188 C 8.3125 -1.429688 8.359375 -2.414062 8.359375 -3.351562 C 8.3125 -5.496094 8.269531 -7.644531 8.269531 -9.789062 C 8.269531 -11.039062 8.3125 -12.292969 8.359375 -13.542969 C 8.359375 -13.722656 8.402344 -13.8125 8.582031 -13.8125 C 8.984375 -13.8125 9.386719 -13.855469 9.789062 -13.855469 C 11.085938 -13.902344 12.335938 -13.902344 13.589844 -13.8125 C 14.4375 -13.765625 15.332031 -13.8125 16.179688 -13.855469 C 16.449219 -13.902344 16.539062 -13.992188 16.539062 -14.304688 C 16.539062 -14.660156 16.582031 -15.019531 16.582031 -15.375 C 16.582031 -16.359375 16.582031 -17.296875 16.539062 -18.238281 C 16.539062 -18.460938 16.449219 -18.683594 16.359375 -18.863281 C 16.179688 -19.21875 15.867188 -19.308594 15.511719 -19.355469 C 14.257812 -19.355469 13.007812 -19.398438 11.800781 -19.398438 C 11.710938 -19.398438 11.621094 -19.398438 11.53125 -19.398438 C 10.683594 -19.355469 9.789062 -19.308594 8.894531 -19.265625 C 8.671875 -19.265625 8.625 -19.308594 8.625 -19.578125 C 8.625 -19.9375 8.671875 -20.292969 8.625 -20.652344 C 8.625 -22.082031 8.582031 -23.46875 8.582031 -24.898438 C 8.582031 -25.210938 8.582031 -25.210938 8.894531 -25.253906 C 9.519531 -25.300781 10.148438 -25.34375 10.773438 -25.390625 C 11.488281 -25.390625 12.246094 -25.476562 12.960938 -25.476562 C 13.902344 -25.523438 14.796875 -25.523438 15.734375 -25.523438 C 16.179688 -25.523438 16.671875 -25.523438 17.121094 -25.566406 C 17.835938 -25.65625 18.148438 -25.835938 18.238281 -26.597656 C 18.414062 -27.9375 18.414062 -29.277344 18.371094 -30.617188 C 18.371094 -30.753906 18.371094 -30.84375 18.328125 -30.933594 C 18.191406 -31.378906 18.011719 -31.734375 17.476562 -31.78125 C 16.984375 -31.871094 16.492188 -31.960938 16.003906 -31.960938 C 15.285156 -32.003906 14.570312 -31.960938 13.855469 -31.960938 C 11.53125 -31.960938 9.253906 -31.960938 6.929688 -31.960938 C 5.632812 -31.914062 4.292969 -31.78125 2.996094 -31.601562 C 2.636719 -31.558594 2.324219 -31.421875 2.101562 -31.15625 C 1.964844 -31.066406 1.878906 -30.84375 1.878906 -30.707031 C 1.832031 -30.261719 1.789062 -29.8125 1.832031 -29.367188 C 1.832031 -26.597656 1.878906 -23.78125 1.878906 -20.964844 C 1.878906 -19.132812 1.878906 -17.296875 1.878906 -15.421875 Z M 1.878906 -15.421875 "/></g></g></g></svg>