<svg xmlns="http://www.w3.org/2000/svg" xmlns:xlink="http://www.w3.org/1999/xlink" width="500" zoomAndPan="magnify" viewBox="0 0 375 374.999991" height="500" preserveAspectRatio="xMidYMid meet" version="1.0"><defs><g/><clipPath id="d0c62be3f2"><path d="M 112.5 134.5 L 262.5 134.5 L 262.5 258 L 112.5 258 Z M 112.5 134.5 " clip-rule="nonzero"/></clipPath><clipPath id="ef6bddcff0"><path d="M 127 134.5 L 239 134.5 L 239 145 L 127 145 Z M 127 134.5 " clip-rule="nonzero"/></clipPath></defs><g clip-path="url(#d0c62be3f2)"><path fill="#f2c8bf" d="M 262.171875 242.71875 C 261.554688 240.421875 261.03125 238.097656 260.347656 235.820312 C 257.5625 226.539062 254 217.605469 248.207031 209.710938 C 244.289062 204.375 239.625 199.90625 233.5 197.117188 C 231.523438 196.21875 229.378906 195.832031 227.382812 195 C 226.753906 195.164062 226.132812 195.085938 225.511719 194.996094 C 226.132812 195.085938 226.753906 195.160156 227.382812 195 C 227.375 178.933594 227.367188 162.867188 227.355469 146.796875 C 227.351562 145.578125 227.3125 144.359375 227.292969 143.140625 C 226.175781 143.15625 225.058594 143.171875 223.945312 143.1875 C 223.945312 159.785156 223.945312 176.378906 223.953125 192.976562 C 223.953125 193.605469 224.027344 194.238281 224.066406 194.867188 C 223.496094 196.648438 222.925781 198.433594 222.359375 200.214844 C 222.203125 200.710938 222.089844 201.230469 221.597656 201.53125 C 221.898438 202.863281 221.1875 203.953125 220.730469 205.105469 C 219.300781 209.8125 217.882812 214.523438 216.4375 219.222656 C 215.101562 223.574219 213.726562 227.914062 212.394531 232.265625 C 212.109375 233.199219 211.664062 233.65625 210.601562 233.652344 C 201.230469 233.617188 191.859375 233.605469 182.492188 233.660156 C 181.160156 233.667969 181.066406 233.078125 181.070312 232.027344 C 181.09375 219.707031 181.058594 207.386719 181.121094 195.070312 C 181.125 193.554688 180.753906 193.09375 179.195312 193.113281 C 172.703125 193.199219 166.207031 193.148438 159.710938 193.148438 C 159.730469 184.398438 159.75 175.648438 159.761719 166.898438 C 159.769531 159.3125 159.765625 151.726562 159.765625 144.144531 C 164.128906 144.074219 168.496094 143.996094 172.859375 143.9375 C 180.898438 143.824219 188.933594 143.726562 196.96875 143.613281 C 203.941406 143.515625 210.914062 143.421875 217.882812 143.285156 C 219.90625 143.242188 221.921875 143.054688 223.945312 143.1875 C 225.058594 143.171875 226.175781 143.15625 227.292969 143.140625 C 230.484375 143.085938 233.675781 143.003906 236.871094 142.996094 C 237.765625 142.992188 238.089844 142.71875 238.058594 141.808594 C 238 140.058594 237.917969 138.292969 238.078125 136.554688 C 238.230469 134.898438 237.652344 134.558594 236.058594 134.5625 C 200.652344 134.609375 165.246094 134.597656 129.839844 134.597656 C 129.519531 134.597656 129.199219 134.621094 128.878906 134.597656 C 128.125 134.535156 127.851562 134.914062 127.792969 135.621094 C 127.578125 138.210938 127.375 140.804688 127.070312 143.386719 C 126.933594 144.566406 127.46875 144.660156 128.429688 144.640625 C 137.789062 144.453125 147.148438 144.304688 156.507812 144.144531 C 156.519531 160.472656 156.527344 176.800781 156.535156 193.128906 C 154.6875 193.132812 152.835938 193.136719 150.984375 193.140625 C 150.992188 186.109375 150.980469 179.082031 151.027344 172.050781 C 151.035156 171.03125 150.742188 170.628906 149.703125 170.644531 C 148.117188 170.671875 146.527344 170.597656 144.941406 170.566406 C 144.945312 166.640625 144.984375 162.714844 144.941406 158.789062 C 144.929688 157.757812 145.246094 157.390625 146.300781 157.410156 C 148.058594 157.4375 149.8125 157.253906 151.304688 156.1875 C 152.574219 155.28125 152.894531 153.960938 152.535156 152.523438 C 152.125 150.863281 151.105469 150.125 149.433594 150.097656 C 146.707031 150.054688 143.101562 153.578125 143.085938 156.398438 C 143.054688 161.121094 143.085938 165.84375 143.09375 170.566406 C 142.445312 170.5625 141.792969 170.554688 141.144531 170.546875 C 141.144531 166.296875 140.914062 162.03125 141.226562 157.808594 C 141.464844 154.519531 139.691406 152.644531 137.503906 150.894531 C 136.269531 149.910156 134.765625 149.695312 133.316406 150.53125 C 131.925781 151.335938 131.695312 152.6875 131.871094 154.140625 C 132.066406 155.730469 133.128906 156.511719 134.582031 156.886719 C 135.710938 157.179688 136.84375 157.53125 138.019531 157.417969 C 139.203125 157.300781 139.589844 157.710938 139.566406 158.921875 C 139.5 162.796875 139.546875 166.675781 139.550781 170.550781 C 138.574219 170.558594 137.601562 170.5625 136.628906 170.566406 C 136.636719 168.765625 136.523438 166.953125 136.675781 165.160156 C 136.984375 161.488281 134.613281 159.53125 131.980469 157.859375 C 130.226562 156.742188 128.050781 157.703125 127.265625 159.632812 C 126.503906 161.503906 127.386719 163.371094 129.355469 164.121094 C 130.714844 164.636719 132.109375 164.902344 133.5625 164.773438 C 134.457031 164.695312 134.796875 165.050781 134.765625 165.953125 C 134.714844 167.488281 134.75 169.027344 134.75 170.566406 C 132.945312 170.609375 131.136719 170.738281 129.335938 170.675781 C 128.140625 170.632812 127.796875 171.007812 127.804688 172.199219 C 127.824219 174.597656 127.835938 176.996094 127.839844 179.394531 C 127.777344 179.46875 127.777344 179.554688 127.839844 179.621094 C 127.847656 182.28125 127.847656 184.9375 127.847656 187.597656 C 127.78125 187.640625 127.738281 187.703125 127.753906 187.78125 C 127.78125 187.828125 127.8125 187.871094 127.847656 187.910156 C 127.847656 189.617188 127.847656 191.324219 127.847656 193.027344 C 127.765625 193.445312 127.71875 193.871094 127.59375 194.273438 C 124.347656 205.070312 121.09375 215.859375 117.84375 226.65625 C 116.257812 231.925781 114.671875 237.195312 113.105469 242.472656 C 112.511719 244.472656 112.539062 244.480469 114.582031 244.484375 C 118.734375 244.484375 122.886719 244.488281 127.042969 244.488281 C 127.738281 247.835938 129.082031 250.855469 131.691406 253.164062 C 136.066406 257.035156 141.089844 258.210938 146.644531 256.304688 C 152.265625 254.375 155.453125 250.277344 156.535156 244.492188 C 178.246094 244.492188 199.957031 244.488281 221.667969 244.484375 C 221.839844 245.152344 221.992188 245.820312 222.1875 246.480469 C 224.105469 252.976562 230.316406 257.476562 236.917969 257.164062 C 244.269531 256.8125 249.800781 251.890625 251.167969 244.492188 C 254.359375 244.488281 257.554688 244.417969 260.746094 244.515625 C 262.230469 244.558594 262.507812 243.976562 262.171875 242.71875 Z M 262.171875 242.71875 " fill-opacity="1" fill-rule="evenodd"/></g><path fill="#f2c8bf" d="M 212.65625 194.332031 C 211.816406 193.683594 211.972656 193.277344 212.476562 192.589844 C 214.085938 190.402344 215.519531 188.113281 216.296875 185.488281 C 216.683594 184.183594 217.339844 182.667969 216.042969 181.644531 C 214.777344 180.648438 213.34375 181.429688 212.195312 182.167969 C 205.835938 186.257812 201.25 191.839844 198.5 198.871094 C 198.03125 200.0625 197.480469 201.550781 198.710938 202.597656 C 199.996094 203.691406 201.34375 202.808594 202.546875 202.179688 C 205.03125 200.875 207.027344 198.949219 208.921875 196.925781 C 209.523438 196.285156 209.898438 196.277344 210.585938 196.847656 C 213.9375 199.636719 217.34375 202.359375 220.726562 205.105469 C 221.1875 203.953125 221.898438 202.863281 221.597656 201.53125 C 218.625 199.121094 215.683594 196.671875 212.65625 194.332031 Z M 212.65625 194.332031 " fill-opacity="1" fill-rule="evenodd"/><g clip-path="url(#ef6bddcff0)"><path fill="#f26862" d="M 156.507812 144.144531 C 147.148438 144.304688 137.789062 144.453125 128.429688 144.640625 C 127.46875 144.660156 126.933594 144.566406 127.070312 143.386719 C 127.375 140.804688 127.578125 138.210938 127.792969 135.621094 C 127.851562 134.914062 128.125 134.53125 128.878906 134.597656 C 129.199219 134.621094 129.519531 134.597656 129.839844 134.597656 C 165.246094 134.597656 200.652344 134.609375 236.058594 134.5625 C 237.652344 134.558594 238.230469 134.898438 238.078125 136.554688 C 237.917969 138.292969 238 140.058594 238.058594 141.808594 C 238.089844 142.71875 237.765625 142.992188 236.867188 142.996094 C 233.675781 143.003906 230.484375 143.085938 227.292969 143.140625 C 226.175781 143.15625 225.058594 143.171875 223.945312 143.1875 C 221.921875 143.054688 219.90625 143.242188 217.882812 143.285156 C 210.914062 143.421875 203.941406 143.515625 196.96875 143.613281 C 188.933594 143.726562 180.894531 143.824219 172.859375 143.9375 C 168.496094 143.996094 164.128906 144.074219 159.765625 144.144531 C 158.679688 144.144531 157.59375 144.144531 156.507812 144.144531 Z M 156.507812 144.144531 " fill-opacity="1" fill-rule="nonzero"/></g><path fill="#2b3333" d="M 127.039062 244.488281 C 126.730469 240.273438 127.535156 236.386719 130.273438 233.015625 C 133.957031 228.480469 140.160156 226.46875 145.765625 228.054688 C 151.644531 229.714844 155.808594 234.585938 156.546875 240.539062 C 156.710938 241.875 156.644531 243.175781 156.535156 244.492188 C 155.453125 250.277344 152.265625 254.378906 146.644531 256.304688 C 141.089844 258.210938 136.066406 257.035156 131.691406 253.164062 C 129.082031 250.855469 127.738281 247.835938 127.039062 244.488281 Z M 127.039062 244.488281 " fill-opacity="1" fill-rule="nonzero"/><path fill="#2b3333" d="M 221.667969 244.484375 C 221.347656 240.148438 222.164062 236.117188 225.128906 232.777344 C 229.292969 228.089844 234.53125 226.460938 240.539062 228.164062 C 246.558594 229.875 250.039062 234.054688 251.125 240.222656 C 251.378906 241.65625 251.308594 243.066406 251.167969 244.492188 C 249.800781 251.890625 244.269531 256.8125 236.917969 257.164062 C 230.316406 257.480469 224.105469 252.976562 222.1875 246.480469 C 221.992188 245.824219 221.839844 245.152344 221.667969 244.484375 Z M 221.667969 244.484375 " fill-opacity="1" fill-rule="nonzero"/><path fill="#f26862" d="M 150.984375 193.140625 C 143.695312 193.144531 136.402344 193.152344 129.113281 193.148438 C 128.691406 193.148438 128.269531 193.070312 127.847656 193.027344 C 127.84375 186.085938 127.863281 179.140625 127.804688 172.199219 C 127.796875 171.007812 128.140625 170.632812 129.335938 170.675781 C 131.136719 170.738281 132.945312 170.613281 134.75 170.566406 C 135.375 170.828125 136.003906 170.539062 136.628906 170.566406 C 137.601562 170.5625 138.574219 170.558594 139.546875 170.550781 C 140.082031 170.550781 140.613281 170.550781 141.144531 170.546875 C 141.792969 170.554688 142.445312 170.5625 143.09375 170.566406 C 143.707031 170.566406 144.324219 170.566406 144.941406 170.566406 C 146.527344 170.597656 148.117188 170.671875 149.703125 170.644531 C 150.742188 170.628906 151.035156 171.03125 151.027344 172.050781 C 150.980469 179.082031 150.992188 186.109375 150.984375 193.140625 Z M 150.984375 193.140625 " fill-opacity="1" fill-rule="nonzero"/><path fill="#2b3333" d="M 223.945312 143.1875 C 225.058594 143.171875 226.175781 143.15625 227.292969 143.140625 C 227.3125 144.359375 227.351562 145.578125 227.355469 146.796875 C 227.367188 162.867188 227.375 178.933594 227.382812 195 C 226.261719 195.289062 225.175781 194.828125 224.066406 194.867188 C 224.027344 194.238281 223.953125 193.605469 223.953125 192.976562 C 223.945312 176.382812 223.945312 159.785156 223.945312 143.1875 Z M 223.945312 143.1875 " fill-opacity="1" fill-rule="nonzero"/><path fill="#2b3333" d="M 156.507812 144.144531 C 157.59375 144.144531 158.679688 144.144531 159.765625 144.144531 C 159.761719 151.726562 159.769531 159.3125 159.757812 166.894531 C 159.75 175.648438 159.726562 184.398438 159.710938 193.148438 C 158.652344 193.140625 157.59375 193.136719 156.535156 193.128906 C 156.527344 176.800781 156.519531 160.472656 156.507812 144.144531 Z M 156.507812 144.144531 " fill-opacity="1" fill-rule="nonzero"/><path fill="#cad3d3" d="M 144.941406 170.566406 C 144.324219 170.566406 143.707031 170.566406 143.09375 170.566406 C 143.085938 165.84375 143.054688 161.121094 143.085938 156.398438 C 143.101562 153.578125 146.707031 150.054688 149.433594 150.097656 C 151.101562 150.125 152.125 150.863281 152.535156 152.523438 C 152.894531 153.960938 152.574219 155.28125 151.304688 156.1875 C 149.8125 157.253906 148.058594 157.4375 146.300781 157.410156 C 145.246094 157.394531 144.929688 157.757812 144.941406 158.789062 C 144.984375 162.714844 144.945312 166.640625 144.941406 170.566406 Z M 144.941406 170.566406 " fill-opacity="1" fill-rule="nonzero"/><path fill="#cad3d3" d="M 141.144531 170.546875 C 140.613281 170.550781 140.082031 170.550781 139.546875 170.550781 C 139.546875 166.675781 139.496094 162.796875 139.566406 158.921875 C 139.589844 157.710938 139.203125 157.304688 138.019531 157.417969 C 136.84375 157.53125 135.710938 157.179688 134.582031 156.886719 C 133.128906 156.511719 132.066406 155.730469 131.871094 154.140625 C 131.691406 152.6875 131.921875 151.335938 133.316406 150.53125 C 134.765625 149.695312 136.269531 149.910156 137.503906 150.894531 C 139.691406 152.644531 141.464844 154.519531 141.222656 157.808594 C 140.914062 162.03125 141.144531 166.296875 141.144531 170.546875 Z M 141.144531 170.546875 " fill-opacity="1" fill-rule="nonzero"/><path fill="#cad3d3" d="M 136.628906 170.566406 C 136.003906 170.539062 135.375 170.828125 134.75 170.566406 C 134.75 169.027344 134.714844 167.488281 134.765625 165.953125 C 134.796875 165.050781 134.457031 164.695312 133.5625 164.773438 C 132.109375 164.902344 130.714844 164.640625 129.355469 164.121094 C 127.386719 163.371094 126.503906 161.503906 127.261719 159.632812 C 128.050781 157.703125 130.226562 156.746094 131.980469 157.859375 C 134.613281 159.53125 136.984375 161.488281 136.675781 165.164062 C 136.523438 166.953125 136.636719 168.765625 136.628906 170.566406 Z M 136.628906 170.566406 " fill-opacity="1" fill-rule="nonzero"/><path fill="#2b3333" d="M 220.726562 205.105469 C 217.34375 202.359375 213.9375 199.636719 210.585938 196.851562 C 209.898438 196.277344 209.523438 196.285156 208.921875 196.929688 C 207.027344 198.949219 205.03125 200.875 202.546875 202.179688 C 201.34375 202.808594 199.996094 203.691406 198.710938 202.597656 C 197.480469 201.554688 198.03125 200.0625 198.5 198.871094 C 201.25 191.839844 205.835938 186.257812 212.195312 182.167969 C 213.34375 181.429688 214.777344 180.648438 216.042969 181.644531 C 217.339844 182.667969 216.683594 184.183594 216.296875 185.488281 C 215.519531 188.113281 214.082031 190.402344 212.476562 192.589844 C 211.972656 193.277344 211.816406 193.683594 212.65625 194.335938 C 215.683594 196.671875 218.625 199.121094 221.597656 201.53125 C 221.898438 202.863281 221.1875 203.953125 220.726562 205.105469 Z M 220.726562 205.105469 " fill-opacity="1" fill-rule="nonzero"/><path fill="#f26862" d="M 181.019531 233.054688 C 180.792969 233.265625 179.972656 233.300781 179.046875 233.335938 C 178.121094 233.371094 177.089844 233.394531 176.445312 233.515625 C 174.792969 233.507812 173.140625 233.527344 171.488281 233.550781 C 170.609375 233.609375 170.699219 233.425781 170.660156 233.273438 C 170.265625 233.441406 169.367188 233.582031 168.59375 233.40625 C 167.496094 233.429688 166.238281 233.492188 165.703125 233.367188 C 165.148438 233.484375 164.152344 233.515625 163.074219 233.5 C 162.804688 233.488281 162.515625 233.492188 162.3125 233.445312 C 162.214844 233.386719 162.140625 233.308594 162.066406 233.210938 C 161.980469 233.121094 161.910156 233 161.832031 232.898438 C 161.535156 232.460938 161.273438 232.015625 161.027344 231.640625 C 160.546875 230.925781 160.050781 230.148438 159.496094 229.363281 C 159.222656 228.96875 158.929688 228.574219 158.613281 228.191406 C 158.292969 227.804688 157.9375 227.449219 157.511719 227.167969 C 155.828125 225.996094 153.9375 224.941406 151.980469 224.125 C 150.023438 223.296875 147.992188 222.738281 146.078125 222.433594 C 144.160156 222.128906 142.367188 222.09375 140.878906 222.226562 C 140.25 222.21875 139.75 222.253906 139.253906 222.332031 C 139.003906 222.363281 138.753906 222.390625 138.484375 222.410156 C 138.214844 222.441406 137.929688 222.46875 137.605469 222.476562 C 137.007812 222.578125 136.71875 222.722656 136.421875 222.851562 C 136.128906 222.980469 135.839844 223.109375 135.257812 223.265625 C 134.710938 223.382812 133.945312 223.664062 133.261719 223.910156 C 132.921875 224.042969 132.601562 224.164062 132.335938 224.246094 C 132.070312 224.332031 131.867188 224.398438 131.742188 224.390625 C 130.925781 224.820312 129.695312 225.542969 128.566406 226.417969 C 128.003906 226.855469 127.464844 227.332031 127.003906 227.804688 C 126.753906 228.027344 126.554688 228.277344 126.351562 228.5 C 126.25 228.609375 126.152344 228.714844 126.054688 228.816406 C 125.96875 228.925781 125.882812 229.027344 125.804688 229.125 C 125.792969 229.460938 125.558594 229.738281 125.363281 230.097656 C 125.257812 230.273438 125.140625 230.457031 125.035156 230.652344 C 124.929688 230.847656 124.871094 231.074219 124.828125 231.300781 C 124.574219 231.835938 124.425781 232.417969 124.242188 232.980469 L 124.007812 234.035156 L 123.925781 234.410156 L 123.882812 234.59375 L 123.871094 234.640625 C 123.867188 234.65625 123.871094 234.675781 123.847656 234.671875 L 123.753906 234.667969 L 122.988281 234.660156 C 122.410156 234.660156 121.796875 234.65625 121.164062 234.65625 C 120.566406 234.652344 119.953125 234.640625 119.347656 234.621094 C 118.136719 234.578125 116.96875 234.519531 115.898438 234.375 C 115.589844 234.28125 115.660156 234.140625 116.035156 234.035156 C 116.40625 233.929688 117.085938 233.871094 117.949219 233.980469 C 118.816406 233.886719 120.683594 234.1875 121.667969 234.121094 C 122.007812 234.109375 122.339844 234.101562 122.667969 234.09375 C 122.824219 234.089844 122.980469 234.082031 123.132812 234.078125 L 123.351562 234.070312 C 123.398438 234.085938 123.394531 234.03125 123.402344 233.996094 L 123.421875 233.882812 C 123.480469 233.582031 123.535156 233.285156 123.59375 232.992188 C 123.648438 232.683594 123.761719 232.390625 123.84375 232.09375 C 123.886719 231.945312 123.933594 231.796875 123.976562 231.652344 C 124.027344 231.507812 124.089844 231.367188 124.144531 231.226562 C 124.261719 230.945312 124.359375 230.65625 124.488281 230.386719 C 124.621094 230.117188 124.753906 229.847656 124.886719 229.578125 C 125.015625 229.308594 125.1875 229.058594 125.328125 228.792969 C 126.050781 227.777344 126.949219 226.808594 128.003906 225.96875 C 129.054688 225.121094 130.261719 224.433594 131.511719 223.855469 C 132.660156 223.332031 133.863281 222.886719 135.125 222.515625 C 135.753906 222.320312 136.398438 222.160156 137.0625 221.992188 C 137.402344 221.921875 137.742188 221.851562 138.089844 221.777344 C 138.433594 221.699219 138.792969 221.671875 139.148438 221.617188 C 139.300781 221.613281 139.46875 221.597656 139.640625 221.582031 C 139.816406 221.570312 140 221.566406 140.191406 221.554688 C 140.570312 221.542969 140.96875 221.492188 141.363281 221.5 C 141.757812 221.5 142.140625 221.503906 142.484375 221.515625 C 142.828125 221.546875 143.128906 221.585938 143.359375 221.640625 C 143.515625 221.582031 143.691406 221.550781 143.886719 221.542969 C 144.078125 221.542969 144.28125 221.5625 144.5 221.585938 C 144.714844 221.617188 144.9375 221.648438 145.171875 221.683594 C 145.398438 221.722656 145.632812 221.769531 145.871094 221.800781 C 146.144531 221.839844 146.433594 221.859375 146.742188 221.902344 C 147.050781 221.953125 147.378906 222.003906 147.742188 222.070312 C 148.464844 222.214844 149.324219 222.445312 150.351562 222.898438 C 152.105469 223.445312 153.765625 224.132812 155.257812 224.941406 C 155.445312 225.042969 155.632812 225.136719 155.8125 225.246094 C 155.992188 225.355469 156.167969 225.460938 156.34375 225.570312 C 156.699219 225.785156 157.039062 226.003906 157.363281 226.242188 C 157.523438 226.359375 157.683594 226.472656 157.84375 226.589844 L 158.082031 226.765625 L 158.332031 226.984375 C 158.5 227.132812 158.617188 227.292969 158.757812 227.445312 C 158.882812 227.601562 158.996094 227.757812 159.109375 227.914062 C 160.011719 228.773438 160.65625 229.753906 161.332031 230.871094 C 161.667969 231.417969 162.019531 232.042969 162.410156 232.59375 C 162.457031 232.65625 162.507812 232.734375 162.550781 232.777344 C 162.582031 232.808594 162.578125 232.804688 162.578125 232.8125 C 162.582031 232.8125 162.582031 232.8125 162.582031 232.8125 C 162.585938 232.816406 162.585938 232.816406 162.589844 232.816406 C 162.597656 232.816406 162.574219 232.8125 162.613281 232.816406 L 162.753906 232.820312 C 163.148438 232.828125 163.589844 232.820312 164.046875 232.808594 C 166.765625 232.867188 169.769531 232.757812 173.546875 232.945312 C 174.753906 232.882812 176.207031 232.738281 177.570312 232.695312 C 178.933594 232.652344 180.210938 232.722656 181.019531 233.054688 Z M 181.019531 233.054688 " fill-opacity="1" fill-rule="evenodd"/><path fill="#f26862" d="M 259.417969 233.628906 C 259.285156 233.875 258.660156 234.03125 257.9375 234.117188 C 257.210938 234.207031 256.394531 234.21875 255.875 234.304688 L 255.371094 234.269531 L 255.109375 234.242188 L 254.980469 234.230469 C 254.972656 234.226562 254.957031 234.230469 254.953125 234.222656 L 254.945312 234.191406 L 254.933594 234.128906 L 254.753906 233.132812 L 254.492188 232.191406 C 254.398438 231.878906 254.265625 231.582031 254.152344 231.273438 C 254.015625 230.953125 253.957031 230.8125 253.984375 230.71875 C 254.003906 230.628906 254.085938 230.601562 254.148438 230.554688 C 254.003906 230.445312 253.824219 230.246094 253.667969 229.992188 C 253.492188 229.753906 253.335938 229.464844 253.257812 229.148438 C 253.019531 228.78125 252.730469 228.40625 252.488281 228.066406 C 252.230469 227.742188 252.015625 227.453125 251.929688 227.242188 C 251.539062 226.992188 250.992188 226.414062 250.34375 225.839844 C 250.027344 225.546875 249.671875 225.273438 249.339844 224.996094 C 248.992188 224.738281 248.652344 224.503906 248.347656 224.308594 C 247.140625 223.640625 245.730469 222.96875 244.1875 222.4375 C 242.644531 221.910156 240.976562 221.507812 239.304688 221.289062 C 237.636719 221.066406 235.960938 221.027344 234.429688 221.171875 C 232.898438 221.304688 231.511719 221.628906 230.390625 222.011719 C 229.402344 222.199219 228.894531 222.535156 227.875 222.722656 C 226.988281 223.089844 227.050781 223.332031 226.207031 223.757812 C 225.8125 223.945312 225.277344 224.304688 224.816406 224.644531 C 224.347656 224.980469 223.960938 225.300781 223.753906 225.320312 C 223.253906 225.859375 222.511719 226.703125 221.863281 227.632812 C 221.214844 228.554688 220.628906 229.574219 220.246094 230.257812 C 220.390625 230.785156 219.820312 231.367188 219.761719 232.152344 L 219.507812 232.851562 L 219.375 233.207031 L 219.296875 233.398438 L 219.183594 233.664062 C 219.148438 233.75 219.105469 233.84375 219.0625 233.933594 L 219 234.070312 C 218.988281 234.09375 218.984375 234.121094 218.96875 234.136719 L 218.894531 234.144531 C 218.691406 234.167969 218.492188 234.199219 218.292969 234.21875 L 218.03125 234.230469 C 217.960938 234.238281 217.898438 234.234375 217.832031 234.234375 C 217.699219 234.234375 217.566406 234.238281 217.4375 234.230469 C 215.640625 234.191406 213.519531 234.171875 211.914062 233.914062 C 211.675781 233.824219 211.722656 233.683594 212.015625 233.574219 C 212.300781 233.460938 212.839844 233.402344 213.523438 233.515625 C 214.214844 233.421875 215.683594 233.71875 216.472656 233.671875 C 217.011719 233.664062 217.535156 233.667969 218.039062 233.628906 C 218.160156 233.613281 218.269531 233.609375 218.378906 233.585938 L 218.542969 233.558594 C 218.570312 233.519531 218.585938 233.457031 218.609375 233.410156 C 218.648438 233.308594 218.6875 233.203125 218.730469 233.101562 C 218.769531 232.988281 218.8125 232.875 218.855469 232.761719 C 219.183594 231.847656 219.453125 230.953125 219.707031 230.039062 C 219.890625 229.570312 220.152344 229.125 220.390625 228.675781 C 220.519531 228.453125 220.652344 228.226562 220.785156 228 C 220.929688 227.78125 221.074219 227.558594 221.222656 227.335938 C 221.828125 226.457031 222.550781 225.613281 223.378906 224.878906 C 224.886719 223.527344 226.730469 222.457031 228.890625 221.695312 C 229.128906 221.636719 229.402344 221.5625 229.6875 221.476562 C 229.980469 221.394531 230.289062 221.308594 230.589844 221.222656 C 230.894531 221.152344 231.195312 221.082031 231.464844 221.035156 C 231.738281 220.996094 231.980469 220.976562 232.167969 220.980469 C 232.382812 220.804688 232.691406 220.742188 233.035156 220.691406 C 233.378906 220.65625 233.761719 220.648438 234.136719 220.601562 C 234.359375 220.578125 234.585938 220.542969 234.832031 220.507812 C 235.078125 220.480469 235.34375 220.449219 235.636719 220.425781 C 236.222656 220.394531 236.933594 220.394531 237.8125 220.5625 C 240.738281 220.664062 243.511719 221.253906 245.609375 222.378906 C 246.082031 222.5 246.546875 222.625 246.992188 222.835938 C 247.214844 222.933594 247.441406 223.039062 247.667969 223.152344 C 247.894531 223.273438 248.117188 223.40625 248.347656 223.542969 C 249.265625 224.109375 250.261719 224.828125 251.40625 225.871094 C 252.1875 226.695312 252.972656 227.601562 253.671875 228.707031 C 254.351562 229.816406 254.945312 231.128906 255.234375 232.675781 C 255.320312 232.910156 255.382812 233.164062 255.449219 233.429688 C 255.460938 233.472656 255.464844 233.46875 255.46875 233.480469 L 255.480469 233.503906 C 255.488281 233.519531 255.496094 233.535156 255.503906 233.546875 C 255.523438 233.574219 255.527344 233.605469 255.578125 233.582031 C 255.613281 233.574219 255.644531 233.566406 255.667969 233.554688 C 255.675781 233.554688 255.671875 233.550781 255.695312 233.550781 L 255.792969 233.546875 L 255.992188 233.542969 C 256.257812 233.535156 256.523438 233.527344 256.78125 233.519531 C 257.816406 233.480469 258.761719 233.429688 259.417969 233.628906 Z M 259.417969 233.628906 " fill-opacity="1" fill-rule="evenodd"/><path fill="#f26862" d="M 247.121094 242.179688 C 246.925781 242.359375 247.023438 241.433594 246.9375 241.050781 C 246.878906 240.960938 246.835938 240.765625 246.792969 240.554688 C 246.769531 240.449219 246.753906 240.335938 246.726562 240.234375 C 246.695312 240.132812 246.664062 240.039062 246.632812 239.960938 C 246.597656 239.832031 246.5625 239.691406 246.523438 239.550781 C 246.507812 239.484375 246.488281 239.414062 246.46875 239.34375 C 246.445312 239.277344 246.421875 239.210938 246.398438 239.148438 C 246.308594 238.890625 246.234375 238.664062 246.226562 238.519531 C 246.046875 238.238281 245.871094 237.925781 245.699219 237.59375 C 245.597656 237.433594 245.496094 237.269531 245.390625 237.101562 C 245.339844 237.019531 245.285156 236.9375 245.230469 236.851562 C 245.171875 236.773438 245.105469 236.699219 245.042969 236.621094 C 244.921875 236.476562 244.800781 236.351562 244.679688 236.21875 C 244.558594 236.089844 244.40625 235.976562 244.257812 235.828125 C 243.964844 235.527344 243.660156 235.265625 243.300781 234.976562 C 242.558594 234.4375 241.527344 233.859375 240.371094 233.488281 C 239.222656 233.105469 237.972656 232.941406 236.871094 232.90625 C 236.617188 232.925781 236.429688 232.953125 236.246094 232.996094 C 236.0625 233.050781 235.882812 233.101562 235.632812 233.144531 C 233.589844 233.453125 232.074219 234.285156 230.847656 235.390625 L 230.617188 235.597656 L 230.402344 235.828125 C 230.261719 235.980469 230.117188 236.132812 229.980469 236.292969 C 229.726562 236.632812 229.449219 236.96875 229.234375 237.359375 C 228.988281 237.734375 228.808594 238.164062 228.605469 238.601562 C 228.527344 238.828125 228.445312 239.0625 228.359375 239.300781 C 228.273438 239.539062 228.234375 239.796875 228.164062 240.054688 C 228.082031 240.269531 228.046875 240.46875 228.023438 240.652344 C 227.996094 240.835938 227.972656 240.996094 227.953125 241.152344 C 227.921875 241.460938 227.914062 241.726562 227.808594 242.019531 C 227.8125 243.652344 228.242188 245.257812 228.839844 246.613281 C 229.015625 246.855469 229.21875 247.074219 229.398438 247.308594 C 229.585938 247.542969 229.808594 247.757812 230.015625 248.007812 C 230.566406 248.582031 231.0625 249.109375 231.671875 249.578125 C 232.261719 250.066406 232.976562 250.496094 233.894531 250.832031 C 233.835938 250.8125 233.949219 250.941406 234.042969 250.941406 C 234.453125 250.992188 235.726562 251.335938 236.515625 251.371094 C 236.65625 251.375 236.808594 251.378906 236.972656 251.386719 C 237.058594 251.386719 237.144531 251.390625 237.230469 251.390625 C 237.320312 251.386719 237.410156 251.378906 237.503906 251.371094 C 237.691406 251.355469 237.890625 251.339844 238.09375 251.324219 C 238.296875 251.304688 238.507812 251.253906 238.722656 251.214844 C 238.828125 251.195312 238.9375 251.175781 239.046875 251.15625 C 239.15625 251.132812 239.265625 251.09375 239.375 251.066406 C 239.589844 250.996094 239.816406 250.945312 240.035156 250.863281 C 240.246094 250.773438 240.464844 250.6875 240.679688 250.601562 C 240.894531 250.511719 241.089844 250.386719 241.292969 250.285156 C 242.160156 249.910156 243.070312 249.308594 243.859375 248.453125 C 244.664062 247.714844 245.355469 246.710938 245.824219 245.617188 C 246.300781 244.519531 246.558594 243.339844 246.6875 242.226562 C 246.867188 242.066406 246.773438 242.707031 246.875 242.789062 C 246.964844 242.972656 246.960938 241.714844 247 242.417969 C 247.203125 242.246094 247.0625 243.429688 246.960938 243.550781 C 246.90625 244.207031 246.734375 244.589844 246.59375 245.019531 C 246.34375 245.902344 245.910156 246.832031 245.308594 247.671875 C 244.703125 248.511719 243.9375 249.242188 243.140625 249.824219 C 242.914062 249.980469 242.734375 250.132812 242.558594 250.25 C 242.378906 250.367188 242.222656 250.46875 242.074219 250.566406 C 242 250.617188 241.925781 250.667969 241.847656 250.710938 C 241.769531 250.75 241.6875 250.789062 241.605469 250.832031 C 241.441406 250.90625 241.261719 250.984375 241.054688 251.058594 C 240.417969 251.382812 239.53125 251.769531 238.5 251.921875 C 237.480469 252.09375 236.351562 252.117188 235.308594 251.96875 C 235.042969 251.90625 234.804688 251.824219 234.582031 251.765625 C 234.46875 251.734375 234.359375 251.707031 234.253906 251.671875 C 234.152344 251.632812 234.050781 251.597656 233.953125 251.5625 C 233.761719 251.492188 233.578125 251.425781 233.402344 251.363281 C 233.230469 251.289062 233.070312 251.210938 232.914062 251.140625 C 232.757812 251.066406 232.601562 250.996094 232.457031 250.917969 C 232.3125 250.828125 232.171875 250.738281 232.027344 250.648438 C 231.890625 250.554688 231.738281 250.46875 231.605469 250.347656 C 231.46875 250.234375 231.332031 250.109375 231.191406 249.976562 C 230.179688 249.335938 229.320312 248.484375 228.617188 247.375 C 227.925781 246.269531 227.375 244.890625 227.203125 243.171875 C 227.109375 241.433594 227.382812 239.738281 228.066406 238.191406 C 228.765625 236.660156 229.824219 235.253906 231.285156 234.226562 C 231.445312 234.140625 231.613281 233.996094 231.824219 233.886719 C 232.03125 233.765625 232.25 233.636719 232.457031 233.515625 C 232.894531 233.304688 233.304688 233.125 233.523438 233.136719 C 233.730469 233.03125 233.980469 232.921875 234.257812 232.816406 C 234.535156 232.726562 234.84375 232.660156 235.152344 232.589844 C 235.460938 232.53125 235.773438 232.515625 236.0625 232.484375 C 236.355469 232.453125 236.628906 232.480469 236.855469 232.476562 C 237.292969 232.328125 237.363281 232.417969 237.804688 232.378906 C 238.3125 232.398438 238.78125 232.519531 239.242188 232.585938 C 239.691406 232.714844 240.140625 232.792969 240.566406 232.960938 C 241.4375 233.242188 242.285156 233.636719 243.1875 234.210938 C 244.039062 234.808594 244.480469 235.332031 244.871094 235.761719 C 245.242188 236.214844 245.558594 236.59375 245.964844 237.15625 C 246.019531 237.242188 246.066406 237.324219 246.113281 237.398438 C 246.148438 237.480469 246.179688 237.550781 246.210938 237.621094 C 246.269531 237.761719 246.316406 237.882812 246.367188 238 C 246.414062 238.117188 246.46875 238.226562 246.519531 238.34375 C 246.570312 238.46875 246.628906 238.59375 246.710938 238.742188 C 246.8125 239.058594 246.976562 239.1875 246.902344 239.292969 C 246.988281 239.710938 247.066406 239.96875 247.113281 240.164062 C 247.144531 240.359375 247.148438 240.492188 247.09375 240.644531 C 247.109375 240.789062 247.136719 240.953125 247.164062 241.117188 C 247.1875 241.285156 247.191406 241.457031 247.199219 241.609375 C 247.210938 241.917969 247.203125 242.160156 247.121094 242.179688 Z M 247.121094 242.179688 " fill-opacity="1" fill-rule="evenodd"/><path fill="#f26862" d="M 236.804688 251.863281 C 236.394531 251.730469 236.546875 251.007812 236.339844 250.660156 L 236.425781 249.386719 C 236.402344 249.15625 236.570312 249.191406 236.710938 249.191406 C 236.566406 249.078125 236.472656 248.839844 236.660156 248.652344 C 236.679688 248.371094 236.667969 248.042969 236.804688 247.917969 C 236.617188 247.617188 236.847656 246.890625 236.828125 246.421875 C 236.582031 244.617188 237.019531 241.910156 237.003906 240.339844 C 237.140625 240.023438 237.019531 239.816406 237.265625 239.507812 C 237.320312 239.199219 237.09375 239.164062 237.148438 238.855469 C 237.234375 238.574219 237.125 238 237.335938 237.910156 C 237.21875 237.417969 237.132812 236.394531 237.375 235.875 C 237.082031 235.691406 237.429688 235.484375 237.269531 235.21875 L 237.378906 234.265625 C 237.398438 233.707031 237.082031 232.976562 237.410156 232.441406 C 237.597656 232.296875 237.925781 232.585938 237.792969 233.023438 C 237.910156 233.261719 237.769531 233.734375 237.859375 234 C 238.007812 234.71875 237.785156 235.3125 237.910156 235.933594 C 237.828125 236.558594 237.878906 237.265625 237.871094 237.964844 C 237.863281 238.605469 237.851562 239.265625 237.757812 239.984375 C 237.628906 240.28125 237.660156 240.808594 237.476562 241.027344 C 237.699219 241.207031 237.511719 241.429688 237.507812 241.671875 C 237.5 241.953125 237.636719 242.289062 237.398438 242.839844 C 237.40625 243.777344 237.503906 244.660156 237.269531 245.390625 C 237.582031 246.023438 237.378906 246.574219 237.371094 247.53125 C 237.238281 248.230469 237.199219 249 236.929688 249.953125 C 236.976562 250.578125 237.347656 251.480469 236.804688 251.863281 Z M 236.804688 251.863281 " fill-opacity="1" fill-rule="evenodd"/><path fill="#f26862" d="M 246.691406 239.277344 C 246.621094 239.703125 245.882812 239.660156 245.570312 239.914062 L 244.300781 240.03125 C 244.078125 240.09375 244.085938 239.921875 244.0625 239.78125 C 243.972656 239.941406 243.753906 240.074219 243.539062 239.921875 C 243.257812 239.945312 242.9375 240.011719 242.789062 239.902344 C 242.523438 240.136719 241.773438 240.035156 241.316406 240.140625 C 239.585938 240.695312 236.855469 240.8125 235.332031 241.175781 C 234.992188 241.109375 234.820312 241.269531 234.464844 241.101562 C 234.152344 241.117188 234.164062 241.34375 233.851562 241.359375 C 233.558594 241.339844 233.03125 241.582031 232.894531 241.394531 C 232.441406 241.621094 231.472656 241.949219 230.914062 241.839844 C 230.808594 242.171875 230.523438 241.886719 230.308594 242.105469 L 229.363281 242.242188 C 228.816406 242.359375 228.199219 242.859375 227.601562 242.679688 C 227.414062 242.539062 227.601562 242.144531 228.0625 242.160156 C 228.257812 241.988281 228.75 241.996094 228.980469 241.84375 C 229.640625 241.515625 230.265625 241.582031 230.839844 241.308594 C 231.46875 241.238281 232.140625 241.015625 232.824219 240.863281 C 233.449219 240.722656 234.09375 240.585938 234.820312 240.515625 C 235.136719 240.582031 235.648438 240.433594 235.898438 240.566406 C 236.027344 240.3125 236.285156 240.449219 236.523438 240.402344 C 236.800781 240.34375 237.101562 240.144531 237.6875 240.265625 C 238.605469 240.070312 239.457031 239.800781 240.21875 239.894531 C 240.785156 239.472656 241.363281 239.570312 242.3125 239.410156 C 243.023438 239.421875 243.792969 239.332031 244.78125 239.445312 C 245.390625 239.300781 246.230469 238.800781 246.691406 239.277344 Z M 246.691406 239.277344 " fill-opacity="1" fill-rule="evenodd"/><path fill="#f26862" d="M 232.191406 250.597656 C 231.863281 250.316406 232.285156 249.722656 232.230469 249.324219 L 232.808594 248.199219 C 232.875 247.980469 233.015625 248.082031 233.144531 248.136719 C 233.058594 247.976562 233.0625 247.722656 233.308594 247.628906 C 233.4375 247.382812 233.554688 247.082031 233.730469 247.019531 C 233.679688 246.671875 234.171875 246.105469 234.339844 245.675781 C 234.828125 243.941406 236.304688 241.667969 236.921875 240.242188 C 237.171875 240.015625 237.148438 239.78125 237.496094 239.601562 C 237.667969 239.34375 237.480469 239.21875 237.652344 238.964844 C 237.84375 238.742188 237.976562 238.183594 238.207031 238.1875 C 238.296875 237.695312 238.636719 236.738281 239.070312 236.371094 C 238.875 236.085938 239.277344 236.039062 239.238281 235.734375 L 239.730469 234.921875 C 239.976562 234.429688 239.988281 233.636719 240.511719 233.296875 C 240.738281 233.242188 240.917969 233.640625 240.617188 233.980469 C 240.625 234.242188 240.304688 234.609375 240.277344 234.882812 C 240.117188 235.589844 239.675781 236.03125 239.53125 236.644531 C 239.199219 237.171875 238.964844 237.828125 238.671875 238.457031 C 238.40625 239.03125 238.128906 239.621094 237.753906 240.230469 C 237.515625 240.445312 237.332031 240.933594 237.078125 241.058594 C 237.210938 241.308594 236.949219 241.433594 236.847656 241.652344 C 236.730469 241.90625 236.71875 242.261719 236.285156 242.660156 C 235.914062 243.511719 235.65625 244.351562 235.152344 244.917969 C 235.1875 245.613281 234.785156 246.03125 234.402344 246.894531 C 234.003906 247.472656 233.667969 248.15625 233.046875 248.914062 C 232.847656 249.5 232.839844 250.460938 232.191406 250.597656 Z M 232.191406 250.597656 " fill-opacity="1" fill-rule="evenodd"/><path fill="#f26862" d="M 244.289062 248.734375 C 243.890625 248.898438 243.546875 248.269531 243.171875 248.148438 L 242.414062 247.167969 C 242.246094 247.019531 242.394531 246.933594 242.5 246.839844 C 242.320312 246.851562 242.089844 246.746094 242.109375 246.484375 C 241.941406 246.269531 241.71875 246.039062 241.734375 245.859375 C 241.398438 245.769531 241.089844 245.097656 240.761719 244.78125 C 239.382812 243.671875 237.835938 241.511719 236.710938 240.480469 C 236.585938 240.171875 236.359375 240.121094 236.304688 239.738281 C 236.125 239.496094 235.945312 239.632812 235.761719 239.390625 C 235.621094 239.140625 235.136719 238.851562 235.214844 238.632812 C 234.78125 238.398438 233.984375 237.804688 233.769531 237.292969 C 233.4375 237.398438 233.519531 237.003906 233.21875 236.957031 L 232.589844 236.273438 C 232.195312 235.902344 231.445312 235.695312 231.261719 235.113281 C 231.273438 234.882812 231.699219 234.808594 231.941406 235.183594 C 232.191406 235.246094 232.457031 235.640625 232.707031 235.742188 C 233.339844 236.082031 233.628906 236.625 234.167969 236.933594 C 234.566406 237.398438 235.117188 237.8125 235.617188 238.277344 C 236.074219 238.703125 236.535156 239.152344 236.984375 239.699219 C 237.101562 239.992188 237.5 240.324219 237.523438 240.601562 C 237.804688 240.566406 237.828125 240.851562 237.996094 241.019531 C 238.191406 241.210938 238.519531 241.347656 238.734375 241.890625 C 239.386719 242.527344 240.0625 243.078125 240.386719 243.753906 C 241.042969 243.984375 241.265625 244.511719 241.898438 245.203125 C 242.261719 245.792969 242.742188 246.371094 243.15625 247.25 C 243.597656 247.667969 244.457031 248.097656 244.289062 248.734375 Z M 244.289062 248.734375 " fill-opacity="1" fill-rule="evenodd"/><path fill="#f26862" d="M 148.855469 248.84375 C 148.59375 248.835938 149.316406 248.25 149.527344 247.917969 C 149.550781 247.8125 149.65625 247.644531 149.777344 247.464844 C 149.835938 247.371094 149.902344 247.28125 149.957031 247.191406 C 150.007812 247.097656 150.050781 247.007812 150.082031 246.929688 C 150.152344 246.816406 150.226562 246.691406 150.296875 246.566406 C 150.335938 246.503906 150.371094 246.441406 150.40625 246.382812 C 150.4375 246.316406 150.464844 246.253906 150.496094 246.191406 C 150.613281 245.945312 150.722656 245.734375 150.820312 245.625 C 150.890625 245.300781 150.988281 244.957031 151.105469 244.597656 C 151.144531 244.414062 151.1875 244.226562 151.234375 244.035156 C 151.253906 243.941406 151.273438 243.84375 151.296875 243.746094 C 151.3125 243.648438 151.320312 243.546875 151.328125 243.449219 C 151.34375 243.261719 151.347656 243.085938 151.355469 242.910156 C 151.363281 242.730469 151.335938 242.542969 151.335938 242.335938 C 151.339844 241.914062 151.308594 241.515625 151.261719 241.058594 C 151.117188 240.152344 150.800781 239.015625 150.246094 237.9375 C 149.703125 236.855469 148.9375 235.855469 148.183594 235.058594 C 147.988281 234.890625 147.835938 234.777344 147.675781 234.679688 C 147.511719 234.589844 147.34375 234.5 147.140625 234.351562 C 145.472656 233.128906 143.8125 232.648438 142.164062 232.566406 L 141.851562 232.546875 L 141.539062 232.5625 C 141.332031 232.570312 141.121094 232.574219 140.910156 232.59375 C 140.488281 232.65625 140.058594 232.695312 139.625 232.820312 C 139.1875 232.910156 138.757812 233.085938 138.304688 233.253906 C 138.085938 233.359375 137.863281 233.464844 137.632812 233.574219 C 137.402344 233.683594 137.191406 233.835938 136.960938 233.972656 C 136.75 234.066406 136.582031 234.183594 136.4375 234.292969 C 136.289062 234.402344 136.15625 234.503906 136.03125 234.597656 C 135.789062 234.792969 135.597656 234.976562 135.316406 235.109375 C 134.160156 236.265625 133.324219 237.703125 132.789062 239.082031 C 132.738281 239.382812 132.730469 239.679688 132.691406 239.972656 C 132.65625 240.269531 132.664062 240.578125 132.632812 240.902344 C 132.613281 241.695312 132.589844 242.414062 132.691406 243.179688 C 132.761719 243.941406 132.960938 244.746094 133.371094 245.632812 C 133.34375 245.578125 133.332031 245.75 133.398438 245.816406 C 133.652344 246.136719 134.308594 247.28125 134.84375 247.863281 C 134.9375 247.964844 135.042969 248.078125 135.15625 248.195312 C 135.214844 248.257812 135.273438 248.320312 135.335938 248.382812 C 135.402344 248.441406 135.472656 248.5 135.542969 248.5625 C 135.6875 248.683594 135.835938 248.808594 135.992188 248.941406 C 136.152344 249.074219 136.335938 249.183594 136.511719 249.308594 C 136.601562 249.371094 136.695312 249.433594 136.785156 249.496094 C 136.878906 249.558594 136.984375 249.605469 137.082031 249.664062 C 137.285156 249.769531 137.480469 249.890625 137.691406 249.984375 C 137.90625 250.074219 138.121094 250.164062 138.332031 250.253906 C 138.546875 250.34375 138.773438 250.394531 138.992188 250.46875 C 139.871094 250.8125 140.941406 251.027344 142.101562 250.980469 C 143.199219 251.027344 144.398438 250.804688 145.507812 250.359375 C 146.621094 249.921875 147.640625 249.269531 148.519531 248.574219 C 148.757812 248.585938 148.238281 248.972656 148.253906 249.101562 C 148.1875 249.292969 149.074219 248.402344 148.605469 248.925781 C 148.871094 248.949219 147.929688 249.6875 147.773438 249.703125 C 147.269531 250.125 146.875 250.277344 146.472656 250.480469 C 145.667969 250.925781 144.703125 251.277344 143.683594 251.453125 C 142.660156 251.617188 141.601562 251.589844 140.625 251.441406 C 140.351562 251.390625 140.117188 251.375 139.910156 251.332031 C 139.703125 251.289062 139.519531 251.25 139.34375 251.214844 C 139.253906 251.195312 139.167969 251.179688 139.082031 251.160156 C 138.996094 251.128906 138.914062 251.101562 138.828125 251.070312 C 138.652344 251.007812 138.472656 250.9375 138.273438 250.84375 C 137.597656 250.621094 136.691406 250.269531 135.855469 249.652344 C 135.015625 249.054688 134.195312 248.273438 133.5625 247.433594 C 133.425781 247.203125 133.3125 246.980469 133.195312 246.777344 C 133.140625 246.675781 133.078125 246.578125 133.03125 246.480469 C 132.984375 246.382812 132.941406 246.285156 132.898438 246.191406 C 132.808594 246.003906 132.726562 245.828125 132.648438 245.660156 C 132.578125 245.488281 132.519531 245.320312 132.460938 245.160156 C 132.402344 244.996094 132.339844 244.839844 132.292969 244.679688 C 132.257812 244.515625 132.21875 244.351562 132.183594 244.1875 C 132.152344 244.023438 132.105469 243.855469 132.09375 243.675781 C 132.082031 243.5 132.074219 243.316406 132.066406 243.121094 C 131.808594 241.957031 131.800781 240.746094 132.089844 239.46875 C 132.386719 238.195312 132.972656 236.832031 134.066406 235.496094 C 135.234375 234.203125 136.628906 233.195312 138.210938 232.585938 C 139.789062 231.996094 141.535156 231.746094 143.296875 232.046875 C 143.472656 232.101562 143.691406 232.121094 143.921875 232.191406 C 144.152344 232.25 144.394531 232.316406 144.628906 232.375 C 145.089844 232.535156 145.507812 232.695312 145.652344 232.859375 C 145.875 232.929688 146.128906 233.03125 146.398438 233.148438 C 146.660156 233.285156 146.925781 233.457031 147.191406 233.621094 C 147.449219 233.796875 147.683594 234.007812 147.910156 234.191406 C 148.140625 234.371094 148.3125 234.585938 148.476562 234.742188 C 148.890625 234.945312 148.875 235.058594 149.21875 235.34375 C 149.5625 235.714844 149.808594 236.128906 150.085938 236.503906 C 150.3125 236.910156 150.574219 237.28125 150.757812 237.703125 C 151.175781 238.515625 151.492188 239.394531 151.722656 240.433594 C 151.902344 241.457031 151.84375 242.136719 151.816406 242.71875 C 151.757812 243.300781 151.714844 243.792969 151.601562 244.476562 C 151.578125 244.578125 151.554688 244.667969 151.53125 244.753906 C 151.5 244.832031 151.472656 244.90625 151.445312 244.980469 C 151.386719 245.117188 151.335938 245.238281 151.289062 245.355469 C 151.238281 245.472656 151.199219 245.589844 151.152344 245.710938 C 151.101562 245.832031 151.050781 245.964844 151.003906 246.125 C 150.851562 246.417969 150.878906 246.628906 150.75 246.652344 C 150.511719 247.003906 150.386719 247.242188 150.28125 247.414062 C 150.164062 247.574219 150.074219 247.667969 149.925781 247.738281 C 149.835938 247.855469 149.738281 247.988281 149.640625 248.125 C 149.539062 248.261719 149.421875 248.382812 149.316406 248.5 C 149.105469 248.722656 148.929688 248.886719 148.855469 248.84375 Z M 148.855469 248.84375 " fill-opacity="1" fill-rule="evenodd"/><path fill="#f26862" d="M 151.542969 242.332031 C 151.410156 242.742188 150.683594 242.589844 150.335938 242.792969 L 149.058594 242.707031 C 148.828125 242.734375 148.863281 242.566406 148.863281 242.425781 C 148.75 242.570312 148.511719 242.664062 148.324219 242.476562 C 148.042969 242.457031 147.714844 242.46875 147.585938 242.332031 C 147.285156 242.519531 146.554688 242.289062 146.089844 242.308594 C 144.277344 242.550781 141.5625 242.117188 139.988281 242.136719 C 139.675781 241.996094 139.46875 242.117188 139.15625 241.875 C 138.847656 241.820312 138.808594 242.042969 138.5 241.988281 C 138.21875 241.90625 137.644531 242.015625 137.554688 241.800781 C 137.058594 241.917969 136.035156 242.003906 135.515625 241.761719 C 135.332031 242.058594 135.121094 241.710938 134.855469 241.871094 L 133.898438 241.761719 C 133.339844 241.738281 132.605469 242.058594 132.074219 241.726562 C 131.925781 241.542969 132.214844 241.210938 132.65625 241.34375 C 132.894531 241.230469 133.367188 241.367188 133.632812 241.28125 C 134.355469 241.132812 134.949219 241.351562 135.574219 241.230469 C 136.199219 241.3125 136.90625 241.257812 137.609375 241.265625 C 138.25 241.277344 138.910156 241.289062 139.632812 241.382812 C 139.929688 241.511719 140.460938 241.480469 140.679688 241.664062 C 140.859375 241.441406 141.082031 241.628906 141.324219 241.632812 C 141.609375 241.636719 141.945312 241.503906 142.496094 241.738281 C 143.433594 241.734375 144.320312 241.632812 145.054688 241.867188 C 145.6875 241.558594 146.238281 241.757812 147.199219 241.765625 C 147.898438 241.902344 148.667969 241.9375 149.628906 242.210938 C 150.253906 242.164062 151.15625 241.792969 151.542969 242.332031 Z M 151.542969 242.332031 " fill-opacity="1" fill-rule="evenodd"/><path fill="#f26862" d="M 138.925781 232.46875 C 139.351562 232.542969 139.308594 233.277344 139.5625 233.585938 L 139.679688 234.855469 C 139.742188 235.078125 139.570312 235.070312 139.429688 235.09375 C 139.589844 235.179688 139.726562 235.398438 139.570312 235.613281 C 139.59375 235.894531 139.660156 236.214844 139.550781 236.363281 C 139.785156 236.625 139.683594 237.378906 139.789062 237.832031 C 140.347656 239.558594 140.460938 242.28125 140.828125 243.804688 C 140.761719 244.136719 140.921875 244.3125 140.753906 244.667969 C 140.769531 244.976562 140.996094 244.964844 141.011719 245.277344 C 140.992188 245.570312 141.234375 246.097656 141.046875 246.234375 C 141.273438 246.683594 141.601562 247.652344 141.496094 248.207031 C 141.828125 248.3125 141.539062 248.597656 141.761719 248.8125 L 141.894531 249.757812 C 142.015625 250.300781 142.515625 250.917969 142.335938 251.511719 C 142.195312 251.699219 141.800781 251.511719 141.8125 251.054688 C 141.640625 250.855469 141.648438 250.367188 141.496094 250.136719 C 141.167969 249.480469 141.234375 248.851562 140.960938 248.28125 C 140.890625 247.65625 140.667969 246.988281 140.515625 246.304688 C 140.371094 245.679688 140.238281 245.035156 140.167969 244.3125 C 140.230469 243.996094 140.082031 243.488281 140.214844 243.234375 C 139.960938 243.109375 140.097656 242.851562 140.050781 242.613281 C 139.996094 242.335938 139.792969 242.035156 139.914062 241.453125 C 139.71875 240.535156 139.449219 239.6875 139.542969 238.925781 C 139.121094 238.363281 139.21875 237.78125 139.058594 236.835938 C 139.070312 236.128906 138.976562 235.363281 139.09375 234.375 C 138.945312 233.769531 138.445312 232.929688 138.925781 232.46875 Z M 138.925781 232.46875 " fill-opacity="1" fill-rule="evenodd"/><path fill="#f26862" d="M 150.273438 246.933594 C 149.992188 247.261719 149.394531 246.839844 148.996094 246.894531 L 147.871094 246.316406 C 147.652344 246.25 147.75 246.113281 147.804688 245.984375 C 147.648438 246.070312 147.390625 246.066406 147.296875 245.820312 C 147.046875 245.691406 146.746094 245.574219 146.683594 245.398438 C 146.335938 245.449219 145.769531 244.957031 145.335938 244.792969 C 143.597656 244.304688 141.320312 242.828125 139.894531 242.214844 C 139.664062 241.964844 139.429688 241.992188 139.25 241.644531 C 138.992188 241.46875 138.867188 241.660156 138.609375 241.484375 C 138.386719 241.296875 137.828125 241.164062 137.832031 240.933594 C 137.339844 240.84375 136.378906 240.503906 136.011719 240.074219 C 135.722656 240.265625 135.679688 239.867188 135.375 239.902344 L 134.558594 239.414062 C 134.0625 239.167969 133.269531 239.15625 132.929688 238.636719 C 132.875 238.410156 133.273438 238.226562 133.613281 238.527344 C 133.875 238.523438 134.246094 238.839844 134.519531 238.867188 C 135.230469 239.027344 135.671875 239.46875 136.285156 239.613281 C 136.816406 239.941406 137.472656 240.179688 138.101562 240.46875 C 138.675781 240.734375 139.269531 241.011719 139.882812 241.386719 C 140.09375 241.625 140.585938 241.804688 140.710938 242.058594 C 140.960938 241.929688 141.085938 242.191406 141.304688 242.289062 C 141.558594 242.40625 141.917969 242.417969 142.316406 242.851562 C 143.167969 243.21875 144.011719 243.480469 144.578125 243.980469 C 145.277344 243.949219 145.695312 244.347656 146.5625 244.730469 C 147.140625 245.125 147.824219 245.460938 148.585938 246.082031 C 149.171875 246.28125 150.136719 246.289062 150.273438 246.933594 Z M 150.273438 246.933594 " fill-opacity="1" fill-rule="evenodd"/><path fill="#f26862" d="M 148.402344 234.867188 C 148.570312 235.261719 147.9375 235.605469 147.816406 235.980469 L 146.832031 236.734375 C 146.683594 236.902344 146.597656 236.757812 146.503906 236.652344 C 146.519531 236.832031 146.410156 237.058594 146.152344 237.039062 C 145.933594 237.207031 145.703125 237.429688 145.523438 237.414062 C 145.433594 237.75 144.757812 238.058594 144.445312 238.386719 C 143.328125 239.757812 141.164062 241.300781 140.132812 242.425781 C 139.824219 242.550781 139.769531 242.777344 139.386719 242.828125 C 139.144531 243.011719 139.28125 243.191406 139.039062 243.371094 C 138.789062 243.511719 138.496094 243.996094 138.28125 243.917969 C 138.042969 244.351562 137.445312 245.144531 136.9375 245.359375 C 137.039062 245.6875 136.648438 245.609375 136.597656 245.910156 L 135.914062 246.535156 C 135.542969 246.929688 135.335938 247.679688 134.753906 247.859375 C 134.519531 247.851562 134.445312 247.425781 134.820312 247.183594 C 134.882812 246.933594 135.28125 246.667969 135.378906 246.417969 C 135.722656 245.789062 136.265625 245.5 136.574219 244.960938 C 137.039062 244.5625 137.457031 244.015625 137.921875 243.515625 C 138.347656 243.058594 138.796875 242.601562 139.347656 242.152344 C 139.640625 242.035156 139.976562 241.636719 140.253906 241.613281 C 140.214844 241.332031 140.503906 241.308594 140.671875 241.140625 C 140.863281 240.949219 141 240.621094 141.542969 240.410156 C 142.183594 239.757812 142.734375 239.082031 143.410156 238.757812 C 143.640625 238.105469 144.171875 237.878906 144.863281 237.25 C 145.457031 236.886719 146.039062 236.410156 146.914062 235.996094 C 147.335938 235.554688 147.765625 234.699219 148.402344 234.867188 Z M 148.402344 234.867188 " fill-opacity="1" fill-rule="evenodd"/><path fill="#cad3d3" d="M 139.890625 193.128906 C 139.464844 193.023438 139.503906 192.070312 139.25 191.65625 L 139.160156 190.003906 C 139.105469 189.710938 139.277344 189.734375 139.417969 189.714844 C 139.261719 189.589844 139.136719 189.292969 139.300781 189.03125 C 139.285156 188.667969 139.242188 188.246094 139.359375 188.066406 C 139.140625 187.699219 139.292969 186.738281 139.230469 186.140625 C 138.882812 184.214844 139.027344 181.410156 139.074219 179.414062 L 139.234375 179.585938 C 138.789062 179.582031 138.417969 179.585938 138.089844 179.601562 C 137.671875 179.480469 137.414062 179.605469 136.992188 179.378906 C 136.589844 179.339844 136.558594 179.5625 136.15625 179.523438 C 135.785156 179.453125 135.054688 179.59375 134.917969 179.382812 C 134.292969 179.527344 132.980469 179.667969 132.285156 179.457031 C 132.082031 179.761719 131.773438 179.429688 131.449219 179.605469 L 130.207031 179.554688 C 129.484375 179.566406 128.578125 179.933594 127.851562 179.640625 C 127.644531 179.464844 127.976562 179.117188 128.5625 179.21875 C 128.855469 179.089844 129.480469 179.195312 129.8125 179.089844 C 130.722656 178.898438 131.515625 179.082031 132.308594 178.921875 C 133.125 178.96875 134.03125 178.875 134.9375 178.847656 C 135.769531 178.824219 136.625 178.804688 137.566406 178.863281 C 137.960938 178.980469 138.644531 178.925781 138.941406 179.097656 C 139.03125 179 139.140625 178.976562 139.257812 178.980469 L 139.703125 179 L 139.683594 179.445312 C 139.675781 179.605469 139.617188 179.78125 139.617188 179.957031 C 139.621094 180.324219 139.769531 180.742188 139.554688 181.46875 C 139.605469 182.675781 139.761719 183.804688 139.585938 184.765625 C 139.945312 185.546875 139.792969 186.273438 139.882812 187.503906 C 139.820312 188.414062 139.871094 189.402344 139.734375 190.664062 C 139.863281 191.460938 140.367188 192.550781 139.890625 193.128906 Z M 139.890625 193.128906 " fill-opacity="1" fill-rule="evenodd"/><path fill="#cad3d3" d="M 139.3125 178.898438 C 139.703125 179.039062 139.507812 179.617188 139.632812 179.9375 C 139.546875 180.289062 139.410156 180.625 139.285156 180.960938 C 139.246094 181.152344 139.097656 181.066406 138.964844 181.019531 C 139.070312 181.152344 139.089844 181.382812 138.867188 181.457031 C 138.757812 181.667969 138.660156 181.921875 138.5 181.964844 C 138.5625 182.273438 138.097656 182.71875 137.917969 183.058594 C 137.65625 183.777344 137.082031 184.558594 136.421875 185.222656 C 135.769531 185.898438 135.035156 186.441406 134.515625 186.867188 C 134.226562 186.933594 134.148438 187.132812 133.796875 187.082031 C 133.554688 187.1875 133.644531 187.394531 133.386719 187.484375 C 133.261719 187.507812 133.105469 187.613281 132.957031 187.683594 C 132.808594 187.75 132.667969 187.792969 132.589844 187.710938 C 132.421875 187.855469 132.136719 188.039062 131.816406 188.15625 C 131.5 188.265625 131.148438 188.324219 130.902344 188.242188 C 130.785156 188.570312 130.550781 188.253906 130.328125 188.433594 C 130.03125 188.429688 129.734375 188.390625 129.4375 188.332031 C 129.179688 188.296875 128.859375 188.324219 128.539062 188.261719 C 128.21875 188.210938 127.90625 188.054688 127.753906 187.78125 C 127.734375 187.667969 127.832031 187.574219 127.96875 187.546875 C 128.105469 187.515625 128.265625 187.550781 128.421875 187.679688 C 128.65625 187.660156 129.019531 187.886719 129.265625 187.832031 C 129.582031 187.800781 129.847656 187.816406 130.109375 187.828125 C 130.371094 187.832031 130.625 187.824219 130.863281 187.707031 C 131.378906 187.6875 131.914062 187.441406 132.414062 187.203125 C 132.53125 187.152344 132.644531 187.089844 132.761719 187.03125 C 132.875 186.96875 132.988281 186.90625 133.105469 186.839844 C 133.34375 186.726562 133.578125 186.570312 133.839844 186.445312 C 134.097656 186.398438 134.417969 186.113281 134.660156 186.125 C 134.625 185.855469 134.878906 185.878906 135.027344 185.746094 C 135.1875 185.574219 135.292969 185.304688 135.753906 185.125 C 136.265625 184.550781 136.59375 183.910156 137.109375 183.546875 C 137.117188 183.238281 137.226562 183.035156 137.363281 182.800781 C 137.433594 182.6875 137.515625 182.570312 137.605469 182.441406 C 137.691406 182.3125 137.773438 182.164062 137.859375 181.996094 C 138.046875 181.78125 138.179688 181.523438 138.363281 181.257812 C 138.519531 180.980469 138.714844 180.691406 138.933594 180.359375 C 138.988281 180.113281 138.933594 179.789062 138.953125 179.523438 C 138.964844 179.25 139.019531 179.023438 139.3125 178.898438 Z M 139.3125 178.898438 " fill-opacity="1" fill-rule="evenodd"/><g fill="#000000" fill-opacity="1"><g transform="translate(138.226768, 306.17043)"><g><path d="M 24.597656 -8.605469 C 24.546875 -8.605469 24.546875 -8.605469 24.546875 -8.605469 C 24.546875 -9.828125 24.546875 -11.101562 24.546875 -12.371094 C 24.5 -13.886719 24.644531 -15.402344 24.402344 -16.917969 C 24.304688 -17.554688 24.304688 -17.652344 23.667969 -17.652344 C 22.640625 -17.605469 21.613281 -17.554688 20.585938 -17.554688 C 18.484375 -17.605469 16.382812 -17.410156 14.277344 -17.410156 C 13.886719 -17.410156 13.691406 -17.3125 13.59375 -16.871094 C 13.496094 -16.578125 13.449219 -16.234375 13.449219 -15.890625 C 13.449219 -15.550781 13.496094 -15.207031 13.496094 -14.816406 C 13.496094 -13.9375 13.546875 -13.054688 13.546875 -12.128906 C 13.546875 -11.734375 13.691406 -11.589844 14.082031 -11.441406 C 14.230469 -11.394531 14.425781 -11.394531 14.621094 -11.34375 C 15.695312 -11.296875 16.773438 -11.246094 17.847656 -11.199219 C 18.09375 -11.148438 18.140625 -11.148438 18.140625 -10.90625 C 18.191406 -9.925781 18.191406 -8.996094 18.191406 -8.019531 C 18.191406 -7.726562 18.191406 -7.382812 17.898438 -7.1875 C 17.210938 -6.847656 16.578125 -6.40625 15.890625 -6.113281 C 14.425781 -5.527344 12.910156 -5.476562 11.441406 -6.0625 C 11.050781 -6.210938 10.710938 -6.40625 10.414062 -6.652344 C 9.828125 -7.140625 9.390625 -7.824219 9.046875 -8.507812 C 8.800781 -9.046875 8.558594 -9.632812 8.460938 -10.269531 C 8.265625 -11.246094 8.019531 -12.226562 8.070312 -13.25 C 8.070312 -14.132812 7.96875 -15.011719 8.070312 -15.890625 C 8.214844 -17.066406 8.410156 -18.289062 8.410156 -19.460938 C 8.363281 -20.148438 8.460938 -20.878906 8.605469 -21.515625 C 8.703125 -21.957031 8.851562 -22.394531 8.949219 -22.789062 C 9.191406 -23.863281 9.4375 -24.9375 10.074219 -25.867188 C 10.660156 -26.75 11.34375 -27.578125 12.371094 -28.019531 C 13.300781 -28.460938 14.230469 -28.851562 15.304688 -28.800781 C 16.039062 -28.753906 16.722656 -28.558594 17.410156 -28.265625 C 17.703125 -28.117188 17.945312 -27.824219 18.042969 -27.480469 C 18.140625 -26.992188 18.140625 -26.453125 18.191406 -25.964844 C 18.289062 -25.28125 18.335938 -24.597656 18.433594 -23.910156 C 18.433594 -23.765625 18.53125 -23.570312 18.679688 -23.519531 C 19.167969 -23.277344 19.65625 -23.128906 20.246094 -23.226562 C 20.488281 -23.226562 20.683594 -23.277344 20.929688 -23.277344 C 21.859375 -23.375 22.738281 -23.421875 23.617188 -23.472656 C 24.011719 -23.519531 24.207031 -23.714844 24.253906 -24.109375 C 24.304688 -24.695312 24.351562 -25.332031 24.207031 -25.964844 C 24.207031 -26.015625 24.207031 -26.113281 24.207031 -26.210938 C 24.109375 -27.285156 24.011719 -28.3125 23.910156 -29.390625 C 23.765625 -30.414062 23.472656 -31.394531 22.835938 -32.226562 C 22.445312 -32.761719 21.90625 -33.105469 21.371094 -33.351562 C 20.683594 -33.691406 20.097656 -34.082031 19.414062 -34.328125 C 19.167969 -34.425781 18.925781 -34.621094 18.679688 -34.671875 C 18.238281 -34.816406 17.75 -34.914062 17.261719 -35.011719 C 16.871094 -35.0625 16.480469 -35.0625 16.089844 -35.0625 C 15.695312 -35.109375 15.304688 -35.0625 14.914062 -35.0625 C 14.621094 -35.0625 14.277344 -35.109375 13.9375 -35.0625 C 12.617188 -34.964844 11.34375 -34.621094 10.121094 -34.035156 C 9.339844 -33.644531 8.507812 -33.152344 7.726562 -32.714844 C 7.628906 -32.664062 7.578125 -32.566406 7.480469 -32.46875 C 6.652344 -31.785156 5.917969 -31.003906 5.230469 -30.21875 C 5.132812 -30.074219 5.035156 -29.925781 4.9375 -29.78125 C 4.792969 -29.390625 4.644531 -29.046875 4.402344 -28.753906 C 4.058594 -28.265625 3.8125 -27.773438 3.667969 -27.238281 C 3.519531 -26.75 3.375 -26.210938 3.226562 -25.722656 C 2.691406 -23.765625 2.296875 -21.808594 2.152344 -19.804688 C 2.054688 -17.652344 2.003906 -15.5 1.957031 -13.351562 C 1.957031 -12.46875 2.003906 -11.636719 2.101562 -10.808594 C 2.199219 -9.828125 2.347656 -8.851562 2.492188 -7.824219 C 2.542969 -7.578125 2.640625 -7.335938 2.738281 -7.089844 C 2.789062 -6.796875 2.933594 -6.503906 2.984375 -6.257812 C 3.226562 -5.378906 3.617188 -4.597656 4.207031 -3.863281 C 4.402344 -3.617188 4.644531 -3.375 4.792969 -3.128906 C 5.574219 -2.054688 6.40625 -0.976562 7.628906 -0.390625 C 8.167969 -0.148438 8.605469 0.195312 9.144531 0.292969 C 10.074219 0.539062 11.003906 0.734375 11.980469 0.734375 C 12.128906 0.78125 12.273438 0.78125 12.46875 0.832031 C 12.957031 0.832031 13.398438 0.878906 13.886719 0.832031 C 15.207031 0.636719 16.527344 0.195312 17.800781 -0.292969 C 18.09375 -0.441406 18.191406 -0.390625 18.191406 0 C 18.191406 0.441406 18.191406 0.441406 18.679688 0.441406 C 19.753906 0.390625 20.878906 0.390625 22.003906 0.34375 C 22.640625 0.292969 23.226562 0.292969 23.8125 0.292969 C 24.15625 0.246094 24.402344 0.0507812 24.402344 -0.292969 C 24.449219 -0.683594 24.5 -1.125 24.5 -1.515625 C 24.546875 -3.863281 24.546875 -6.210938 24.597656 -8.605469 Z M 24.597656 -8.605469 "/></g></g></g><g fill="#000000" fill-opacity="1"><g transform="translate(164.774358, 306.17043)"><g><path d="M 2.054688 -13.398438 C 2.054688 -11.003906 2.003906 -8.558594 2.054688 -6.160156 C 2.054688 -4.304688 2.101562 -2.445312 2.152344 -0.636719 C 2.199219 0.246094 2.445312 0.441406 3.277344 0.441406 C 4.402344 0.390625 5.527344 0.195312 6.652344 0.246094 C 7.285156 0.246094 7.871094 0.195312 8.507812 0.195312 C 9.632812 0.246094 10.757812 0.292969 11.882812 0.34375 C 13.496094 0.390625 15.109375 0.34375 16.675781 0.246094 C 16.96875 0.195312 17.3125 0.148438 17.554688 0.0507812 C 17.996094 -0.0507812 18.09375 -0.195312 18.140625 -0.636719 C 18.140625 -0.734375 18.140625 -0.78125 18.140625 -0.929688 C 18.191406 -1.761719 18.191406 -2.589844 18.238281 -3.472656 C 18.289062 -4.058594 18.289062 -4.597656 18.289062 -5.183594 C 18.289062 -5.625 18.042969 -6.015625 17.75 -6.113281 C 17.457031 -6.160156 17.210938 -6.210938 16.917969 -6.210938 C 16.285156 -6.257812 15.597656 -6.257812 14.914062 -6.308594 C 13.105469 -6.355469 11.296875 -6.601562 9.488281 -6.601562 C 9.289062 -6.601562 9.144531 -6.601562 8.949219 -6.601562 C 8.753906 -6.601562 8.703125 -6.652344 8.703125 -6.847656 C 8.703125 -7.675781 8.753906 -8.558594 8.753906 -9.4375 C 8.703125 -12.128906 8.703125 -14.867188 8.65625 -17.554688 C 8.605469 -18.875 8.507812 -20.246094 8.558594 -21.566406 C 8.605469 -25.230469 8.460938 -28.851562 8.3125 -32.519531 C 8.3125 -33.054688 8.3125 -33.59375 8.3125 -34.132812 C 8.3125 -34.425781 8.117188 -34.671875 7.773438 -34.671875 C 7.578125 -34.71875 7.382812 -34.71875 7.140625 -34.71875 C 5.820312 -34.671875 4.5 -34.671875 3.128906 -34.621094 C 2.492188 -34.621094 2.199219 -34.574219 2.152344 -33.644531 C 2.101562 -32.8125 2.101562 -32.03125 2.101562 -31.148438 C 2.054688 -30.660156 2.054688 -30.171875 2.003906 -29.683594 C 2.003906 -28.851562 1.957031 -28.019531 1.957031 -27.238281 C 1.957031 -26.0625 2.003906 -24.890625 2.054688 -23.714844 C 2.054688 -20.292969 2.054688 -16.820312 2.054688 -13.398438 Z M 2.054688 -13.398438 "/></g></g></g><g fill="#000000" fill-opacity="1"><g transform="translate(185.015065, 306.17043)"><g><path d="M 25.769531 -18.191406 C 25.820312 -20 25.574219 -21.761719 25.230469 -23.519531 C 25.035156 -24.597656 24.792969 -25.671875 24.546875 -26.75 C 24.207031 -28.507812 23.375 -30.023438 22.296875 -31.441406 C 21.808594 -32.078125 21.273438 -32.714844 20.539062 -33.203125 C 19.753906 -33.691406 18.875 -34.082031 17.996094 -34.523438 C 17.996094 -34.523438 17.945312 -34.523438 17.945312 -34.574219 C 17.3125 -34.71875 16.722656 -34.867188 16.089844 -34.964844 C 15.109375 -35.0625 14.132812 -35.011719 13.152344 -35.011719 C 12.46875 -34.964844 11.734375 -34.914062 11.050781 -34.671875 C 10.023438 -34.328125 8.996094 -33.9375 8.117188 -33.253906 C 7.433594 -32.714844 6.652344 -32.226562 6.0625 -31.539062 C 5.378906 -30.710938 4.839844 -29.828125 4.304688 -28.898438 C 3.960938 -28.214844 3.765625 -27.480469 3.519531 -26.796875 C 2.933594 -25.035156 2.589844 -23.277344 2.394531 -21.46875 C 2.296875 -20.683594 2.25 -19.902344 2.199219 -19.167969 C 2.152344 -18.140625 2.054688 -17.113281 2.003906 -16.089844 C 1.957031 -14.964844 2.003906 -13.839844 2.25 -12.714844 C 2.25 -12.519531 2.296875 -12.324219 2.296875 -12.128906 C 2.394531 -11.394531 2.445312 -10.710938 2.492188 -9.976562 C 2.640625 -8.949219 2.933594 -8.019531 3.277344 -7.089844 C 3.910156 -5.28125 4.890625 -3.617188 6.160156 -2.199219 C 6.355469 -2.003906 6.601562 -1.808594 6.796875 -1.613281 C 7.042969 -1.46875 7.238281 -1.269531 7.433594 -1.125 C 8.117188 -0.585938 8.851562 -0.195312 9.632812 0 C 10.90625 0.390625 12.226562 0.539062 13.546875 0.585938 C 14.671875 0.585938 15.792969 0.585938 16.820312 0.0507812 C 17.210938 -0.0976562 17.554688 -0.246094 17.945312 -0.390625 C 18.140625 -0.488281 18.335938 -0.636719 18.53125 -0.78125 C 18.777344 -0.976562 19.023438 -1.171875 19.265625 -1.320312 C 20.097656 -1.90625 20.878906 -2.492188 21.417969 -3.375 C 21.859375 -4.058594 22.347656 -4.742188 22.691406 -5.476562 C 23.324219 -6.699219 23.863281 -7.921875 24.253906 -9.242188 C 24.792969 -10.90625 25.28125 -12.566406 25.476562 -14.328125 C 25.527344 -14.769531 25.476562 -15.207031 25.625 -15.648438 C 25.769531 -16.136719 25.722656 -16.675781 25.769531 -17.164062 C 25.769531 -17.507812 25.769531 -17.847656 25.769531 -18.191406 Z M 8.410156 -16.722656 C 8.3125 -18.289062 8.410156 -19.804688 8.753906 -21.320312 C 9.191406 -23.179688 9.925781 -24.9375 11.148438 -26.453125 C 11.832031 -27.238281 12.761719 -27.726562 13.789062 -27.726562 C 14.816406 -27.773438 15.746094 -27.433594 16.527344 -26.847656 C 16.625 -26.75 16.722656 -26.699219 16.773438 -26.550781 C 17.3125 -25.769531 17.75 -24.890625 18.042969 -23.960938 C 18.433594 -22.542969 18.730469 -21.074219 18.875 -19.65625 C 18.925781 -18.386719 18.875 -17.164062 18.828125 -15.941406 C 18.828125 -15.160156 18.777344 -14.375 18.632812 -13.644531 C 18.386719 -11.980469 18.042969 -10.316406 17.457031 -8.703125 C 17.210938 -8.019531 16.820312 -7.433594 16.1875 -7.140625 C 15.402344 -6.699219 14.523438 -6.40625 13.59375 -6.601562 C 13.054688 -6.699219 12.519531 -6.796875 11.980469 -6.945312 C 10.90625 -7.238281 10.21875 -7.921875 9.683594 -8.851562 C 9.144531 -9.976562 8.898438 -11.101562 8.703125 -12.273438 C 8.460938 -13.789062 8.3125 -15.257812 8.410156 -16.722656 Z M 8.410156 -16.722656 "/></g></g></g><g fill="#000000" fill-opacity="1"><g transform="translate(212.784918, 306.17043)"><g><path d="M 2.054688 -16.871094 C 2.054688 -14.71875 2.054688 -12.519531 2.003906 -10.367188 C 2.003906 -9.390625 2.003906 -8.410156 2.003906 -7.382812 C 2.003906 -5.132812 2.003906 -2.835938 2.054688 -0.539062 C 2.054688 0.0507812 2.054688 0.0976562 2.691406 0.195312 C 2.789062 0.195312 2.886719 0.195312 2.984375 0.195312 C 3.519531 0.195312 4.058594 0.148438 4.546875 0.195312 C 5.671875 0.292969 6.796875 0.292969 7.921875 0.292969 C 8.117188 0.292969 8.265625 0.246094 8.410156 0.246094 C 8.851562 0.148438 9.046875 -0.0976562 9.09375 -0.539062 C 9.09375 -1.566406 9.144531 -2.640625 9.144531 -3.667969 C 9.09375 -6.015625 9.046875 -8.363281 9.046875 -10.710938 C 9.046875 -12.078125 9.09375 -13.449219 9.144531 -14.816406 C 9.144531 -15.011719 9.191406 -15.109375 9.390625 -15.109375 C 9.828125 -15.109375 10.269531 -15.160156 10.710938 -15.160156 C 12.128906 -15.207031 13.496094 -15.207031 14.867188 -15.109375 C 15.792969 -15.0625 16.773438 -15.109375 17.703125 -15.160156 C 17.996094 -15.207031 18.09375 -15.304688 18.09375 -15.648438 C 18.09375 -16.039062 18.140625 -16.429688 18.140625 -16.820312 C 18.140625 -17.898438 18.140625 -18.925781 18.09375 -19.953125 C 18.09375 -20.195312 17.996094 -20.441406 17.898438 -20.636719 C 17.703125 -21.027344 17.359375 -21.125 16.96875 -21.171875 C 15.597656 -21.171875 14.230469 -21.222656 12.910156 -21.222656 C 12.8125 -21.222656 12.714844 -21.222656 12.617188 -21.222656 C 11.6875 -21.171875 10.710938 -21.125 9.730469 -21.074219 C 9.488281 -21.074219 9.4375 -21.125 9.4375 -21.417969 C 9.4375 -21.808594 9.488281 -22.199219 9.4375 -22.59375 C 9.4375 -24.15625 9.390625 -25.671875 9.390625 -27.238281 C 9.390625 -27.578125 9.390625 -27.578125 9.730469 -27.628906 C 10.414062 -27.675781 11.101562 -27.726562 11.785156 -27.773438 C 12.566406 -27.773438 13.398438 -27.871094 14.179688 -27.871094 C 15.207031 -27.921875 16.1875 -27.921875 17.210938 -27.921875 C 17.703125 -27.921875 18.238281 -27.921875 18.730469 -27.972656 C 19.511719 -28.070312 19.851562 -28.265625 19.953125 -29.09375 C 20.148438 -30.5625 20.148438 -32.03125 20.097656 -33.496094 C 20.097656 -33.644531 20.097656 -33.742188 20.050781 -33.839844 C 19.902344 -34.328125 19.707031 -34.71875 19.121094 -34.769531 C 18.582031 -34.867188 18.042969 -34.964844 17.507812 -34.964844 C 16.722656 -35.011719 15.941406 -34.964844 15.160156 -34.964844 C 12.617188 -34.964844 10.121094 -34.964844 7.578125 -34.964844 C 6.160156 -34.914062 4.695312 -34.769531 3.277344 -34.574219 C 2.886719 -34.523438 2.542969 -34.375 2.296875 -34.082031 C 2.152344 -33.984375 2.054688 -33.742188 2.054688 -33.59375 C 2.003906 -33.105469 1.957031 -32.617188 2.003906 -32.128906 C 2.003906 -29.09375 2.054688 -26.015625 2.054688 -22.933594 C 2.054688 -20.929688 2.054688 -18.925781 2.054688 -16.871094 Z M 2.054688 -16.871094 "/></g></g></g></svg>